<svg xmlns="http://www.w3.org/2000/svg" viewBox="0 0 64 64">
  <path d="M47.476562 5.0175781C45.553891 5.118875 43.406813 5.6986094 41.101562 7.0683594C35.046236 10.665374 32.750114 14.519441 31.878906 16.630859C30.018688 13.728435 26.70488 10.822083 21.371094 10.128906C11.362094 8.7769062 8 18.578125 8 18.578125C8 18.578125 10.86175 17.144297 13.96875 16.779297C15.06075 16.652297 16.358609 13.888125 17.224609 13.828125C18.091609 13.768125 17.786719 16.449828 18.261719 16.423828C19.419719 16.360828 20.953281 16.156281 21.988281 16.238281C22.661281 16.292281 23.237984 14.141797 23.833984 14.216797C24.297984 14.275797 24.373797 16.409094 25.216797 16.621094C26.80885 17.270747 28.039173 17.775284 29.121094 18.189453C24.279535 18.442169 18.119356 19.905361 14.910156 24.53125C8.0151563 34.47125 15.533203 42 15.533203 42C15.533203 42 17.233187 39.154188 17.742188 35.117188C18.230187 33.821188 16.244688 31.034297 16.679688 30.029297C17.114687 29.024297 19.040109 31.8605 19.287109 31.3125C19.887109 29.9815 20.539469 28.700844 21.230469 27.589844C24.834233 21.801425 28.761692 20.798838 30.439453 19.673828C28.844894 26.440703 23.836732 43.839892 11.599609 58.798828L24.574219 58.914062C24.574219 58.914062 25.309797 57.140781 26.341797 54.050781L22.328125 52.21875L21.644531 50.4375L27.128906 51.607422C27.667906 49.872422 28.248125 47.866578 28.828125 45.642578L26.382812 44.382812L25.537109 42.806641L29.318359 43.710938C29.807359 41.718938 30.284609 39.572594 30.724609 37.308594L29.017578 36.306641L28.349609 34.908203L31.035156 35.652344C31.926764 30.7265 32.612843 25.280838 32.841797 19.582031C33.83989 21.102373 35.560692 23.36868 36.761719 27.908203C37.045719 28.980203 37.255156 30.181203 37.410156 31.408203C37.474156 31.913203 39.73975 30.095578 39.84375 31.017578C39.94675 31.938578 37.642797 33.701047 37.716797 34.873047C37.923797 38.208047 37.791016 41 37.791016 41C37.791016 41 46.435219 38.341219 43.324219 28.574219C42.947219 27.388219 41.745594 25.457578 40.683594 24.267578C39.040056 22.42924 36.682919 20.178746 34.544922 18.570312C36.480619 18.967799 39.310351 19.570163 43.189453 21.867188C44.220453 22.477187 45.292797 23.243313 46.341797 24.070312C46.773797 24.410312 47.138969 21.293781 47.917969 21.925781C48.694969 22.556781 48.258125 25.660813 49.203125 26.507812C51.889125 28.917813 53.902344 31.166016 53.902344 31.166016C53.902344 31.166016 58.543047 22.56925 48.748047 17.40625C47.559047 16.77925 45.169219 16.202797 43.449219 16.091797C41.369934 15.959761 38.767236 15.968916 36.357422 16.158203C37.896885 15.366956 39.716278 14.440734 42.257812 13.248047C43.279812 12.768047 43.914047 12.500141 45.123047 12.119141C45.618047 11.963141 43.700328 9.3618906 44.611328 9.0878906C45.520328 8.8128906 47.92475 11.297859 49.09375 11.005859C53.17375 10.658859 57 8.7285156 57 8.7285156C57 8.7285156 53.244578 4.7136875 47.476562 5.0175781 z" fill="#F44F0D" />
</svg>