<svg width="253" height="100" viewBox="0 0 253 100" fill="none" xmlns="http://www.w3.org/2000/svg">
<g clip-path="url(#clip0_40_804)">
<path d="M147.983 52.1891C147.834 52.0676 147.699 51.9297 147.581 51.778C147.488 51.6588 147.402 51.5346 147.322 51.4058C147.563 51.6485 147.784 51.9104 147.983 52.1891Z" fill="#FFFDFC"/>
<path d="M250.646 74.2168C249.658 74.6446 248.451 74.7057 247.353 74.9168C247.399 73.9339 247.535 72.9575 247.759 72.0001C248.308 70.3335 249.307 68.8779 249.598 67.1723C249.762 66.1835 249.208 64.4279 248.423 63.839C247.639 63.2501 245.91 63.339 245.043 63.8112C243.21 64.8112 241.657 66.2446 239.999 67.5168C238.342 68.789 236.772 70.039 234.511 71.8279C234.511 70.2557 234.204 69.1668 234.582 68.5779C236.514 65.5946 238.424 62.5446 240.735 59.9001C242.496 57.9057 244.938 56.6445 248.248 59.0223C246.684 52.6834 243.199 50.9112 238.797 54.1945C233.902 57.8445 230.659 62.9057 228.82 68.8279C228.271 70.5557 228.65 72.9834 229.369 74.9001C230.466 77.7334 234.039 78.3501 235.746 76.2445C237.453 74.139 238.935 72.0446 240.63 70.039C241.772 68.689 243.111 67.5112 244.357 66.2612L245.109 66.7835C245.015 67.6019 244.876 68.4143 244.691 69.2168C244.362 70.3668 243.819 71.439 243.555 72.5946C242.88 75.5612 244.966 77.7001 247.984 77.1168C248.824 76.9557 249.472 76.2612 250.3 76.0057C250.695 75.9001 251.305 76.3168 251.821 76.4946C251.821 75.1834 252.759 73.3001 250.646 74.2168Z" fill="#03381F"/>
<path d="M160.774 29.289C157.454 32.8779 153.952 36.3168 150.868 40.1057C150.692 40.3168 150.522 40.5279 150.358 40.739C150.135 41.0182 149.934 41.3134 149.754 41.6224C148.832 43.2057 148.354 45.1557 147.69 46.9501L147.46 47.5557L147.328 47.4835C145.726 46.5613 144.584 44.539 144.172 42.3501C144.075 41.8671 144.018 41.3764 144.002 40.8835C143.926 38.7668 144.551 36.6835 146.17 35.4557C149.326 33.0557 153.189 31.5112 156.762 29.6223C157.404 29.3492 158.066 29.1299 158.743 28.9668L160.774 29.289Z" fill="#03381F"/>
<path d="M136.142 53.5944C135.455 52.3379 134.478 51.2685 133.293 50.4778C132.118 49.5956 130.696 49.115 129.232 49.1055C128.23 49.1339 127.253 49.4248 126.395 49.95C125.846 50.2778 125.297 50.6166 124.803 50.9722C123.591 51.7944 122.422 52.6833 121.225 53.5278L121.132 53.5944C120.073 54.3389 119.013 55.1055 117.68 56.0611C117.713 55.1666 117.724 54.35 117.68 53.5944C117.543 49.0166 116.264 46.8666 113.388 46.1222C112.858 45.9922 112.318 45.9049 111.775 45.8611C111.648 46.7555 111.605 47.6889 111.429 48.5611C111.385 48.7722 111.336 48.9833 111.275 49.1833C110.869 50.5166 110.447 51.8388 110.019 53.1611C109.743 51.9782 109.328 50.833 108.784 49.75C108.255 48.6823 107.638 47.662 106.94 46.7C106.671 46.3055 106.391 45.9166 106.056 45.5277C105.721 45.1389 105.425 44.7555 105.085 44.3666C102.912 41.948 100.486 39.7742 97.8514 37.8833C97.4618 37.6 97.0612 37.3278 96.6551 37.0389C92.6468 34.2814 88.3491 31.9822 83.8404 30.1833C83.0556 29.8722 82.2653 29.5777 81.475 29.2999C76.7925 27.5797 71.8802 26.5851 66.9042 26.35C70.1038 25.7944 78.5444 27.1611 72.8149 24.55C75.4985 24.6388 79.2414 25.9389 81.4037 25.4C79.5762 24.5611 76.2285 24.2889 75.1802 23.1333C77.9243 23.05 81.6562 24.05 84.3398 23.8722C84.8805 23.8501 85.415 23.7471 85.9259 23.5666L84.488 23.0888L80.4817 21.75C81.5793 21.4666 83.094 21.5889 84.6307 21.75C85.4978 21.8333 86.3814 21.9333 87.2046 21.9666C87.5339 21.9666 87.8522 21.9666 88.1595 21.9666C88.1595 21.8055 88.2089 21.65 88.2364 21.4833C88.0004 21.4222 87.7644 21.3611 87.5174 21.3111C86.5954 21.1 85.6131 20.9444 84.6362 20.7555C82.9503 20.5515 81.2931 20.1526 79.6969 19.5666C81.2391 19.3444 82.7757 19.2222 84.3179 19.15C85.7667 19.0833 87.2211 19.0499 88.6754 19.0222C90.459 18.9833 92.2426 18.9444 94.0482 18.8222C93.0274 18.4333 90.8322 18.6055 90.47 17.8389L95.4641 17.9611C95.4971 17.7833 95.5245 17.6055 95.5574 17.4055L91.167 16.4444C91.167 16.3778 91.167 16.3111 91.2054 16.2444C93.1482 16.0833 96.6496 17.3222 97.7911 16.3055C96.6276 15.75 94.4104 15.6555 93.5543 14.9722C93.4631 14.9105 93.3847 14.8312 93.3238 14.7389L94.4928 14.7666L99.8436 14.9L99.9095 14.3111L98.1752 14.05L92.1987 13.1333L90.3932 12.8555C90.942 12.2611 93.2854 11.7444 92.4951 10.8944L86.7107 12.5611C87.4516 11.25 90.0529 10.0555 89.098 9.00552L81.6507 13.8111C82.1995 12.45 84.4496 11.3055 83.0392 10.4778C80.3335 12.3 77.8694 15.1222 75.0101 16.4444C75.6138 14.8722 78.2371 12.8611 77.7212 11.4444L70.4111 17.5555L72.1618 13.9611C69.5659 14.3833 67.9634 16.9333 66.3444 19.0944C65.8659 19.75 65.3374 20.3667 64.7639 20.9388C64.8407 20.3833 65.5542 19.6888 65.7462 19.1C65.7842 19.0322 65.8077 18.9572 65.8151 18.8797C65.8226 18.8022 65.8139 18.724 65.7895 18.6502C65.7652 18.5763 65.7258 18.5084 65.6739 18.451C65.622 18.3935 65.5588 18.3478 65.4883 18.3166L64.6267 19.1277L58.3813 25C58.6941 23.1277 59.0179 21.2333 59.3362 19.3222C59.5557 18.0055 59.7807 16.6833 60.0002 15.3666L59.3911 15.25C58.727 16.6444 58.0575 18.0278 57.3989 19.4277H57.2672C57.4922 16.8166 58.513 13.1111 56.5263 11.2444C56.2409 12.5666 55.9445 13.8833 55.6537 15.2111C54.7427 13.1055 55.1433 10.1222 54.6768 7.73331C54.4134 7.73331 54.128 7.73331 53.8865 7.73331C53.7164 9.14442 53.5463 10.5611 53.3377 12.35L50.1931 3.57773L49.4577 3.66664L49.6552 5.81664C47.7783 3.86664 45.5611 -0.0944642 42.6689 0.0610913L45.1221 2.45553L40.117 0.733292C42.1366 2.59996 45.1495 4.17217 47.4984 5.93328C45.1166 6.01662 42.3286 4.89441 39.8151 4.55552C40.084 6.46107 45.402 7.41664 47.4984 8.90553C45.638 9.2833 42.5152 7.76664 40.2432 7.48331C41.467 9.63886 46.6807 11.15 49.2711 13.0389C47.3777 13.4889 44.5074 12.3944 42.3012 12.2888C42.9323 14.1333 47.7344 15.0111 49.9077 16.4888C48.5302 17.4611 45.9069 15.9333 45.5172 18.0055C37.5705 14.1166 29.7061 9.99995 19.8276 11.2833C15.0694 12.1222 7.56721 12.9499 5.63541 16.3833C8.04467 15.5833 10.4594 14.7944 13.3791 13.8222C11.2278 15.6611 9.49352 17.1555 7.74832 18.6166L8.29712 19.1389C10.4924 18.2611 12.8248 16.3611 14.9816 15.9833C9.26851 21.8222 18.8232 15.3389 21.7703 15.3944C20.2117 17.0055 18.6586 18.6055 17.111 20.2166C17.2921 20.3389 17.4787 20.4555 17.6598 20.5888C20.4038 18.6666 23.0271 16.5777 27.0389 15.4611L21.1063 19.8333C23.8503 20.0722 27.3737 17.55 30.3372 16.8222C29.6183 18.55 25.8425 19.8611 24.0808 21.4222C24.2564 21.6333 24.4211 21.8444 24.5912 22.0555C28.3286 19.9111 32.3019 18.2889 37.565 18.4944L30.9189 21.7555L31.1824 22.2055C34.2447 21.2944 37.1699 19.9833 40.9676 20.3L35.6003 22.5222C36.1151 22.622 36.6357 22.6888 37.1589 22.7222C40.0895 22.9277 43.6129 22.3833 46.5874 22.5055C47.0429 23.6166 44.6666 23.4444 43.4482 24.0444L51.1644 26.0333C44.2932 25.1529 37.3643 24.8185 30.4415 25.0333C15.1627 25.5888 0.2571 29.7 0.015625 42.7555C0.783955 40.9055 1.48094 39.2055 2.17244 37.5C3.50604 38.2722 2.74868 40.6944 3.27005 42.0333C3.58836 39.0166 4.15912 36.1444 6.56289 33.6444C7.1117 35.5111 7.66051 37.3055 8.20931 39.0833C9.71305 38.4222 8.73068 35.5111 9.30693 34.0833C10.4045 35.0055 10.3497 37.1444 11.0357 38.4777L11.6778 38.4278C11.6448 37.4389 11.6229 36.45 11.6009 35.4666C12.5614 35.8555 12.6986 37.4722 13.3461 38.2944C14.8663 34.0666 14.0047 34.3111 16.0353 38.9722C16.0737 35.7722 16.3536 32.7388 18.6531 29.7555C18.7354 32.7555 18.8068 35.4111 18.8781 38.0888H19.2239C19.6629 36.0722 20.102 34.0444 20.53 32.0277C20.8848 32.5741 21.0437 33.2271 20.9801 33.8778C20.9801 35.6944 20.2886 37.9666 21.5837 38.8778C21.1996 35.2222 22.3356 32.0111 25.3321 28.9666C24.7833 31.7444 24.1522 33.8389 25.7931 36.3611C26.6383 34.3333 27.4779 32.2889 28.3176 30.25C29.9256 30.9611 26.8742 34.2722 28.9432 34.7444C30.3592 32.2611 31.1714 29.4611 34.5246 27.5611C34.0471 29.3666 31.4019 31.3889 32.6696 32.5611C33.888 29.9278 36.0448 28.0833 39.656 27.0055C38.0699 28.9389 36.1052 30.4166 35.6442 32.8222C37.2577 31.0777 38.6681 29.5666 40.073 28.0611C40.5395 29.6833 38.1248 30.8388 40.1334 32.3888C38.3278 33.0833 36.5168 33.8555 34.7441 34.7166C30.5256 36.7101 26.5753 39.2398 22.9887 42.2444C22.2698 42.8444 21.5837 43.4722 20.9361 44.1111C19.6771 45.2988 18.5136 46.5862 17.4567 47.9611C16.8791 48.7547 16.3424 49.578 15.8487 50.4277C14.0386 53.4769 13.0894 56.9704 13.1047 60.5277C14.5316 57.75 15.9475 55.0277 17.3799 52.2666C18.8781 54.2611 17.5665 58.0111 20.0087 60.4389C20.1514 57.55 18.9879 54.6 20.4916 51.55C22.2643 53.9611 23.1478 56.6222 26.3254 58.0888C24.9424 55.5611 23.082 53.1389 23.0655 50.1222C23.0555 49.6543 23.096 49.1867 23.1863 48.7277C23.4168 49.2 23.6418 49.65 23.8887 50.0833C25.0442 52.3201 26.6976 54.2543 28.7182 55.7333C27.6206 53.8277 26.4462 51.9444 25.8205 50.0055C25.6262 49.4178 25.4847 48.8135 25.3979 48.2C25.8554 48.3889 26.3247 48.5466 26.8029 48.6722C27.0169 49.0889 27.22 49.5166 27.434 49.9389C28.1066 51.4606 29.0862 52.8231 30.3098 53.9389C29.9695 52.55 29.6347 51.2 29.3109 49.8666C29.1134 49.0666 28.9158 48.2778 28.7237 47.4833C28.4713 46.4666 28.2243 45.4611 27.9719 44.45L28.6194 44.3611C29.064 45.3889 29.5085 46.4111 29.964 47.4389C30.2439 48.0889 30.5128 48.7444 30.8202 49.4L31.369 49.3055C31.2647 48.6611 31.1659 48.0222 31.0671 47.3888C30.8147 45.7222 30.5183 44.0944 30.2933 42.4555C30.4195 42.4222 30.5403 42.4 30.6665 42.3778C31.5171 44.0444 32.3788 45.6611 33.2184 47.3C33.427 47.6944 33.6246 48.0778 33.8331 48.4611C34.052 48.0985 34.1766 47.6856 34.1953 47.2611C34.36 45.2833 33.0154 42.45 33.0977 40.4555L33.6849 40.3833C34.7112 42.8111 35.5234 45.3389 38.6242 46.85C37.8504 44.2611 36.2534 41.8 37.1424 38.8166C38.2785 41.3388 39.5242 43.5222 42.3726 44.9666C42.3726 44.9666 42.4055 44.9666 42.4219 44.9944C42.4071 44.9785 42.3959 44.9596 42.389 44.9389C40.8688 43.0389 39.4145 41.1389 39.8096 38.5166C40.9731 40.1833 41.8457 41.7333 44.2001 42.1833C44.2909 42.213 44.3848 42.2317 44.48 42.2389C44.4196 42.1555 44.3757 42.0722 44.3263 41.9889C43.311 40.2666 42.3616 38.6555 41.3957 36.9889L41.9006 36.8111C47.7179 43.0777 43.2397 37.4333 44.8861 34.1277C45.7422 38.0166 46.6807 36.4611 47.7948 33.8222C48.4918 34.0222 48.0966 34.8777 48.3765 35.6722L49.6607 34.6277C44.2879 44.1666 39.656 53.4389 40.6383 64.8833C41.6591 76.7611 47.0649 87.85 53.6615 98.8111C53.9363 99.0292 54.185 99.279 54.4024 99.5555L54.5561 99.5833C54.6034 99.4608 54.6402 99.3344 54.6658 99.2055L54.6988 99.1H54.6C53.7603 94.0055 52.9536 89.1555 52.1578 84.2944C50.8132 76.2778 50.1437 68.3 51.609 60.6944C53.195 52.4555 55.1488 44.3388 57.097 36.25C58.1508 36.5055 59.0398 37.8722 59.6874 40.5611H60.2362C60.3295 39.2333 60.4173 37.9055 60.5161 36.5833H60.818C61.1308 38.3 61.4491 40.0222 61.7564 41.75H62.4314C62.5083 40.7277 62.5906 39.7055 62.6674 38.6833H62.9638C63.326 40.9555 62.7059 43.9389 63.1669 46.1611C63.1943 46.3055 63.2327 46.4389 63.2711 46.5722C62.5168 46.2253 61.7011 46.0363 60.8728 46.0166C60.9459 47.6702 60.9258 49.3265 60.8125 50.9777C60.4228 54.0389 59.7149 57.0222 59.3965 60.0944C58.9959 63.8055 58.5569 67.5389 58.6776 71.3333C58.7654 74.1111 60.0277 76.8889 62.8815 79.0389C63.09 78.2833 63.2382 77.8389 63.3425 77.3722C64.5114 72.2222 65.3017 66.9111 66.9481 61.9833C68.0787 58.5888 70.2684 55.65 72.2331 52.6944C72.6068 52.3026 73.112 52.0667 73.6491 52.0333C72.7637 54.5481 71.8856 57.0537 71.0148 59.55C72.9137 57.7555 74.3076 55.5389 76.0583 53.5278C76.1566 53.7604 76.2319 54.0023 76.2833 54.25C75.5699 56.6389 74.3845 58.7777 73.2759 61.1611L75.3559 59.4944C75.279 59.8389 75.1802 60.2 75.054 60.6833C74.6918 61.1944 74.5052 61.6722 74.9991 62.05C75.2187 61.7777 75.4437 61.4944 75.6687 61.2333C76.5537 60.8483 77.3932 60.3637 78.1712 59.7888C78.6213 61.2777 75.1418 63.5722 75.9321 64.9389C77.2822 63.9944 78.1273 61.3499 79.9109 61.4166C79.1591 64.4777 77.0023 68.0111 76.9474 70.8611C80.4433 65.6388 81.6068 60.8611 81.1787 56.2611C81.6007 55.4445 81.9338 54.5839 82.172 53.6944C82.2708 53.324 82.3586 52.9537 82.4355 52.5833C82.6703 51.5076 82.5909 50.3859 82.207 49.3551C81.823 48.3242 81.1511 47.4287 80.2732 46.7777C80.2128 46.7277 80.1469 46.6722 80.0756 46.6222C79.339 46.0209 78.4353 45.6675 77.4907 45.6111C75.076 41.4278 71.7392 37.2777 68.161 33.0944L64.8682 29.2944C66.8569 30.2448 68.666 31.5403 70.2135 33.1222C70.9434 33.85 71.6075 34.6055 72.2551 35.3444L72.6832 35.1777C72.372 34.4417 71.9719 33.7476 71.4922 33.1111C70.9434 32.2444 70.4221 31.3944 70.6855 30.7889C71.465 31.5067 72.1879 32.285 72.8478 33.1166C74.0277 34.5333 75.1967 35.9833 76.6126 36.6722C75.9156 35.4611 75.2241 34.2444 74.5271 33.0277L74.1485 32.3611L74.4393 32.2333C74.6972 32.4486 74.941 32.6805 75.1693 32.9277C76.6401 34.4833 77.9133 36.7444 79.7353 37.3722C79.3402 36.0537 78.9432 34.737 78.5444 33.4222L79.0658 33.3C80.0207 34.9666 80.7122 36.9111 81.5464 38.6889C81.9954 39.6813 82.5631 40.6142 83.2367 41.4666C83.3355 39.6333 82.0787 37.0222 82.8965 35.5555C84.4606 38.0333 85.0533 41.8111 87.1552 43.6555C86.7765 41.1889 86.3924 38.7333 86.0247 36.2722C88.0333 39.05 89.0266 42 89.9486 45.0889C90.0145 45.3389 90.0968 45.5889 90.1682 45.85C90.234 45.5889 90.2889 45.3333 90.3438 45.0722C90.7265 43.2723 90.9433 41.4404 90.9914 39.6L91.7542 39.5611L92.9451 44.9666L93.0274 45.3555L93.0604 45.5166L92.989 45.4666C91.4304 44.3555 90.7609 44.8111 89.4876 46.9166C88.7248 48.1889 87.918 49.4278 87.243 50.75C86.7436 51.7222 86.2552 52.7 85.7887 53.6889C83.7032 58.0889 82.0458 62.6777 81.9086 67.9333C81.9086 68.4889 81.8702 69.0889 81.9086 69.6722C82.1117 73.5611 84.0215 76.7277 87.2375 78.1944C90.7224 79.7777 93.4939 78.6944 95.3379 76.2777C97.9448 72.8444 100.667 69.3722 102.363 65.3944C103.559 62.5722 103.383 58.9166 103.285 55.5722C103.285 55.0166 102.736 54.3389 102.039 53.6889C101.49 53.1722 100.908 52.6666 100.436 52.2055C100.033 51.8397 99.5981 51.5124 99.1357 51.2277C99.2994 49.8602 99.3398 48.4805 99.2564 47.1055C99.2564 46.7055 99.2564 46.3 99.2564 45.9055C99.2564 45.5111 99.2564 45.0944 99.2893 44.7055C99.3136 44.2354 99.3704 43.7676 99.4595 43.3055L100.052 43.2777C100.213 43.7279 100.345 44.1881 100.447 44.6555C100.535 45.0388 100.601 45.4389 100.672 45.8444C100.744 46.25 100.804 46.6444 100.864 47.0444C101.172 49.0555 101.479 51.0722 102.511 52.3944C102.922 50.7277 102.577 48.5444 103.093 46.95C103.181 46.6506 103.312 46.3661 103.482 46.1055C103.63 46.3669 103.76 46.6379 103.872 46.9166C104.75 49.0222 105.123 51.7889 106.616 53.1444C106.199 49.6722 106.896 49.65 108.092 50.9833C108.389 51.3111 108.712 51.7222 109.058 52.1778C109.404 52.6333 109.673 53.0278 110.002 53.4889L109.936 53.6889C109.036 56.4666 108.125 59.2055 107.335 62.0222C105.255 69.4555 104.069 77.1333 105.365 85.3555C106.084 90.1945 108.145 94.7275 111.308 98.4278C111.462 98.0555 111.583 97.9222 111.561 97.7889C109.547 84.6611 111.078 72.5833 117.202 61.9278C119.163 58.5086 121.975 55.6698 125.358 53.6944C126.005 53.324 126.675 52.9685 127.366 52.6278C128.349 52.1666 129.885 52.6278 131.159 52.6889C131.115 53.0166 131.093 53.3555 131.065 53.6944C131.051 54.571 130.905 55.4403 130.632 56.2722C130.269 57.1833 129.375 57.8278 128.689 58.5611C125.605 61.8203 122.519 65.0777 119.431 68.3333C117.362 70.5222 116.714 73.2444 117.235 76.6666C119.749 75.05 122.032 73.7111 124.161 72.1889C127.251 69.9666 130.637 68.0055 133.134 65.2333C135 63.1611 136.076 60.1333 136.734 57.25C136.995 55.9993 136.783 54.6952 136.142 53.5944ZM25.3156 46.7055C25.32 46.5364 25.3329 46.3677 25.354 46.2C25.6699 46.656 25.9612 47.1289 26.2267 47.6166L26.4681 48.0666C26.0455 47.5611 25.6614 47.1277 25.3156 46.7055ZM40.1334 32.3166C39.9798 30.0944 41.3298 28.8 44.8477 27.8722C44.1836 28.6611 43.525 29.4278 42.8665 30.2C46.7081 28.3278 49.6827 28.0222 51.2687 29.1666C47.674 30.1833 43.9037 31.2444 40.117 32.3166H40.1334ZM68.2104 48.5166C68.397 49.6277 67.4475 50.8777 68.6604 51.1166C69.0555 50.1555 69.4617 49.1944 69.8568 48.25C70.0269 47.8333 70.2026 47.4277 70.3727 47.0166C70.4989 46.7055 70.6361 46.3944 70.7623 46.0777C70.9088 46.3644 71.0123 46.6714 71.0697 46.9889C71.1458 47.3858 71.1734 47.7907 71.152 48.1944C71.1344 48.7404 71.0664 49.2835 70.9489 49.8166C69.8074 50.8778 68.6714 51.9722 67.4914 53.0611C67.2006 52.4277 66.9426 51.7555 66.6737 51.0889C66.8987 50.7222 67.1237 50.3444 67.3762 49.9222L68.2104 48.5166ZM65.6145 48.8222C65.6749 48.6833 65.7298 48.55 65.7847 48.4111C65.9493 48.0055 66.1194 47.5944 66.295 47.1833C66.4707 46.7722 66.6298 46.3777 66.7945 45.9722C66.8878 45.7444 66.9756 45.5222 67.0744 45.2944L67.4091 45.3555L67.2719 45.95C67.1841 46.3555 67.0853 46.7611 66.992 47.1555C66.8987 47.55 66.7999 47.9611 66.7176 48.3722C66.5749 48.9722 66.4323 49.5722 66.3005 50.1777C66.0972 49.715 65.8682 49.2643 65.6145 48.8277V48.8222ZM65.0108 41.85C65.159 41.85 65.3017 41.8944 65.4499 41.9166C65.4216 43.2948 65.2561 44.6665 64.956 46.0111C64.8956 46.4166 64.8297 46.8222 64.7749 47.2166C64.7749 47.3444 64.7748 47.4722 64.7419 47.5944C64.4431 47.2658 64.1016 46.9799 63.7266 46.7444L63.9077 46.0444C64.2754 44.6611 64.6376 43.2611 65.0108 41.85ZM95.4916 42.8833C95.7824 43.4944 96.0404 44.1055 96.2819 44.7222C96.441 45.1166 96.5837 45.5111 96.7154 45.9055C96.8471 46.3 96.9789 46.6889 97.0941 47.0889C97.4069 48.1333 97.6429 49.1833 97.8954 50.25L97.7746 50.1444C96.7099 49.1444 95.8099 47.9833 94.7781 46.95C94.7781 46.6222 94.8111 46.3 94.822 45.9777C94.833 45.6555 94.822 45.1778 94.822 44.7778C94.822 44.7 94.822 44.6222 94.822 44.5444C94.822 43.4666 94.7342 42.3778 94.6739 41.3C94.9647 41.85 95.2336 42.3611 95.4916 42.8944V42.8833ZM99.9644 54.8555C100.859 55.75 101.018 58.1111 100.612 59.4222C98.8733 65.0361 95.8127 70.1381 91.6938 74.2889C91.0243 74.9722 89.8553 75.1666 88.9169 75.5778C88.4888 74.4666 88.0443 73.3889 87.6656 72.2833C87.5558 71.9778 87.6656 71.6277 87.6656 70.6555C88.4449 65.1 91.2164 60.0222 95.1678 55.6555C95.2223 55.6024 95.2854 55.5592 95.3544 55.5277C96.7484 54.7111 98.3893 53.2944 99.9644 54.8666V54.8555Z" fill="#03381F"/>
<path d="M169.483 70.8779C169.449 71.1335 169.395 71.3861 169.323 71.6335C169.323 71.4224 169.284 71.2113 169.273 71.0057L169.483 70.8779Z" fill="#FFFDFC"/>
<path d="M193.602 75.1832L196.318 75.3832C195.49 77.6054 193.717 78.4499 191.379 77.5165C189.382 76.7165 188.586 74.961 189.184 72.3499C189.497 70.9499 190.068 69.6332 190.435 68.2443C190.605 67.4324 190.724 66.6104 190.792 65.7832L189.727 64.9943C189.085 65.7554 188.421 66.4943 187.801 67.2721C185.485 70.1777 183.109 73.0332 180.891 76.0165C179.662 77.6832 178.147 78.5721 175.886 77.8499C173.625 77.1276 172.489 75.4554 172.045 73.2054C171.979 72.861 171.929 72.5276 171.886 72.1943C171.587 69.9858 171.888 67.7366 172.758 65.6887C172.997 65.1233 173.281 64.5788 173.609 64.061C175.876 60.3501 178.338 56.7654 180.985 53.3221C181.166 53.0832 181.358 52.8499 181.534 52.611C182.79 51.0388 184.744 49.8888 186.665 49.0721C189.305 47.961 192.438 50.1221 193.843 53.611C194.18 54.4382 194.407 55.3069 194.518 56.1943C189.919 53.5054 187.12 55.6388 184.865 58.561C182.666 61.4629 180.649 64.5023 178.828 67.661C178.438 68.3277 178.943 69.5999 179.037 70.5943C179.838 70.3165 180.804 70.2332 181.413 69.7388C184.305 67.4054 187.066 64.9165 189.952 62.5776C191.253 61.5221 192.828 60.7888 194.71 62.1777C196.736 63.6721 196.472 65.511 195.896 67.2276C195.32 68.9443 194.381 70.511 193.794 72.2276C193.536 73.0943 193.668 74.1721 193.602 75.1832Z" fill="#03381F"/>
<path d="M226.483 67.4721C226.412 67.7277 226.335 67.9777 226.252 68.2166C226.285 68.061 226.329 67.911 226.373 67.7666L226.571 67.1499L226.516 67.3555L226.483 67.4721Z" fill="#FFFDFC"/>
<path d="M221.971 78.0778C219.391 78.1666 216.356 76.1389 215.934 73.4555C215.672 71.3737 215.846 69.2593 216.444 67.2499C217.07 64.8722 218.25 62.7111 219.045 60.3944C219.265 59.7555 218.969 58.8833 218.914 58.1166C218.261 58.2833 217.399 58.25 216.998 58.6722C214.622 61.0944 212.163 63.4555 210.105 66.15C207.707 69.2777 205.715 72.7333 203.52 76.0055C203.114 76.5944 202.301 77.4833 201.873 77.3333C200.99 77.0166 199.843 76.1944 199.53 75.4C199.475 75.2555 199.42 75.1166 199.371 74.9666C199.153 74.3511 198.998 73.7144 198.91 73.0666C198.818 72.4607 198.839 71.8428 198.97 71.2444C199.698 68.4967 200.651 65.8152 201.818 63.2277C202.982 60.5666 204.562 58.1388 205.72 55.45C205.977 54.8411 206.199 54.2179 206.385 53.5833C206.763 52.2888 207.043 50.9389 207.411 49.6333C208.28 49.9531 209.062 50.4783 209.691 51.1652C210.32 51.8522 210.778 52.6812 211.027 53.5833C211.268 54.5771 211.259 55.6163 211 56.6055C210.358 59.1889 209.09 61.5388 208.607 64.4444C210.116 62.7777 211.565 61.1111 213.151 59.5222C214.737 57.9333 216.34 56.0611 218.343 54.9611C219.107 54.6222 219.932 54.4472 220.766 54.4472C221.6 54.4472 222.425 54.6222 223.189 54.9611C224.287 55.5166 225.527 57.6944 225.516 58.9555C225.483 61.5333 224.775 64.0333 224.1 66.4611C223.551 68.3722 222.514 70.0722 221.998 71.9833C221.746 72.9166 222.196 74.1277 222.327 75.2166C223.354 74.95 224.385 74.7 225.401 74.4111C225.614 74.3127 225.812 74.1836 225.988 74.0277C226.103 76.2166 224.341 77.9944 221.971 78.0778Z" fill="#03381F"/>
<path d="M169.483 70.8779C169.449 71.1335 169.395 71.3861 169.323 71.6335C169.323 71.4224 169.284 71.2113 169.273 71.0057L169.483 70.8779Z" fill="#FFFDFC"/>
<path d="M169.286 71.0053C169.286 71.2109 169.286 71.422 169.335 71.6331C168.155 75.6998 162.052 78.8165 158.408 78.1665C154.973 77.5498 152.201 75.2942 151.488 71.6942C151.427 71.3831 151.373 71.0665 151.323 70.7498C151.148 69.6274 151.077 68.4911 151.109 67.3553C151.13 66.5844 151.216 65.8168 151.367 65.0609C152.282 60.9274 154.023 57.0271 156.482 53.5998C157.569 52.0522 158.741 50.5683 159.994 49.1554C161.388 47.5776 163.172 45.8776 165.91 47.0887C168.649 48.2998 168.995 50.8387 169.428 53.1998L169.494 53.5942C169.966 56.572 169.346 58.3776 167.299 60.2609C167.2 59.5831 167.156 59.022 167.041 58.472C166.679 56.7442 165.554 56.1053 164.297 56.922C159.105 60.2553 155.906 65.0775 155.192 71.522C155.115 72.1887 156.592 73.7442 157.525 74.0831C161.202 75.4054 164.242 74.2109 167.03 72.4776C167.639 72.0498 168.32 71.622 169.286 71.0053Z" fill="#03381F"/>
<path d="M169.483 70.8779C169.449 71.1335 169.395 71.3861 169.323 71.6335C169.323 71.4224 169.284 71.2113 169.273 71.0057L169.483 70.8779Z" fill="#03381F"/>
<path d="M143.536 71.8888C143.311 72.3136 143.201 72.7908 143.217 73.2722C143.401 74.1386 143.639 74.9922 143.931 75.8277C144.682 75.7347 145.42 75.5481 146.126 75.2722C146.853 74.7724 147.528 74.1991 148.14 73.5611C147.471 77.1444 145.495 78.8555 142.932 78.2722C141.514 77.9315 140.265 77.0828 139.417 75.883C138.569 74.6832 138.178 73.2132 138.316 71.7444C138.81 67.1666 139.903 62.7277 140.967 58.3166C141.372 56.7238 141.857 55.1532 142.422 53.6111C142.861 52.3611 143.322 51.0888 143.777 49.7222C145.117 49.8496 146.37 50.4493 147.317 51.4166C147.396 51.5454 147.482 51.6697 147.575 51.7889C147.693 51.9406 147.827 52.0785 147.976 52.2C148.272 52.6307 148.507 53.1021 148.672 53.6C148.887 54.2315 148.969 54.9012 148.914 55.5666C148.678 58.4277 147.723 61.1611 146.823 63.8222C145.901 66.5833 144.633 69.2 143.536 71.8888Z" fill="#03381F"/>
<path d="M147.983 52.1891C147.834 52.0676 147.699 51.9297 147.581 51.778C147.488 51.6588 147.402 51.5346 147.322 51.4058C147.563 51.6485 147.784 51.9104 147.983 52.1891Z" fill="#03381F"/>
</g>
<defs>
<clipPath id="clip0_40_804">
<rect width="253" height="100" fill="white"/>
</clipPath>
</defs>
</svg>
