<svg width="190" height="75" viewBox="0 0 190 75" fill="none" xmlns="http://www.w3.org/2000/svg">
<g clip-path="url(#clip0_15_13)">
<path d="M111.132 39.1417C111.021 39.0506 110.92 38.9472 110.831 38.8333C110.761 38.744 110.696 38.6508 110.637 38.5542C110.817 38.7362 110.983 38.9327 111.132 39.1417Z" fill="#FFFDFC"/>
<path d="M188.232 55.6625C187.49 55.9833 186.583 56.0292 185.759 56.1875C185.794 55.4504 185.896 54.7181 186.064 54C186.476 52.75 187.226 51.6584 187.445 50.3792C187.568 49.6375 187.152 48.3209 186.563 47.8792C185.973 47.4375 184.675 47.5042 184.024 47.8584C182.647 48.6084 181.481 49.6833 180.236 50.6375C178.992 51.5917 177.813 52.5292 176.115 53.8709C176.115 52.6917 175.884 51.875 176.168 51.4333C177.619 49.1958 179.053 46.9083 180.789 44.925C182.112 43.4292 183.946 42.4833 186.431 44.2667C185.256 39.5125 182.639 38.1833 179.334 40.6458C175.657 43.3833 173.222 47.1792 171.841 51.6208C171.429 52.9167 171.713 54.7375 172.253 56.175C173.077 58.3 175.76 58.7625 177.042 57.1833C178.324 55.6042 179.437 54.0333 180.71 52.5292C181.568 51.5167 182.573 50.6333 183.509 49.6958L184.073 50.0875C184.003 50.7013 183.899 51.3107 183.76 51.9125C183.513 52.775 183.105 53.5792 182.907 54.4459C182.4 56.6709 183.966 58.275 186.233 57.8375C186.864 57.7167 187.35 57.1958 187.972 57.0042C188.269 56.925 188.727 57.2375 189.114 57.3708C189.114 56.3875 189.819 54.975 188.232 55.6625Z" fill="#FFFDFC"/>
<path d="M120.739 21.9667C118.245 24.6583 115.616 27.2375 113.299 30.0792C113.167 30.2375 113.04 30.3958 112.916 30.5542C112.749 30.7635 112.598 30.985 112.463 31.2167C111.77 32.4042 111.412 33.8667 110.913 35.2125L110.74 35.6667L110.641 35.6125C109.438 34.9208 108.58 33.4042 108.271 31.7625C108.198 31.4002 108.155 31.0322 108.143 30.6625C108.086 29.075 108.556 27.5125 109.771 26.5917C112.141 24.7917 115.043 23.6333 117.726 22.2167C118.208 22.0118 118.705 21.8473 119.214 21.725L120.739 21.9667Z" fill="#FFFDFC"/>
<path d="M102.241 40.1958C101.725 39.2534 100.991 38.4514 100.102 37.8583C99.2189 37.1967 98.1508 36.8363 97.0518 36.8292C96.2994 36.8504 95.5652 37.0687 94.9211 37.4625C94.5089 37.7083 94.0968 37.9625 93.7258 38.2292C92.815 38.8458 91.9371 39.5125 91.0386 40.1458L90.9686 40.1958C90.1731 40.7542 89.3777 41.3292 88.3762 42.0458C88.4009 41.375 88.4091 40.7625 88.3762 40.1958C88.2731 36.7625 87.3128 35.15 85.1532 34.5917C84.755 34.4942 84.3498 34.4287 83.9415 34.3958C83.8467 35.0667 83.8137 35.7667 83.6818 36.4208C83.6488 36.5792 83.6117 36.7375 83.5664 36.8875C83.2614 37.8875 82.9441 38.8792 82.6226 39.8708C82.4157 38.9837 82.1043 38.1248 81.6952 37.3125C81.2985 36.5118 80.8352 35.7465 80.3104 35.025C80.1085 34.7292 79.8983 34.4375 79.6469 34.1458C79.3955 33.8542 79.1729 33.5667 78.9174 33.275C77.2853 31.461 75.464 29.8307 73.4853 28.4125C73.1926 28.2 72.8918 27.9958 72.5868 27.7792C69.5767 25.7111 66.3491 23.9867 62.9631 22.6375C62.3738 22.4042 61.7803 22.1833 61.1868 21.975C57.6702 20.6848 53.9811 19.9389 50.2443 19.7625C52.6471 19.3458 58.9859 20.3708 54.6831 18.4125C56.6985 18.4792 59.5093 19.4542 61.1332 19.05C59.7607 18.4208 57.2466 18.2167 56.4594 17.35C58.5202 17.2875 61.3228 18.0375 63.3382 17.9042C63.7442 17.8876 64.1456 17.8104 64.5293 17.675L63.4495 17.3167L60.4408 16.3125C61.2651 16.1 62.4026 16.1917 63.5566 16.3125C64.2078 16.375 64.8714 16.45 65.4896 16.475C65.7369 16.475 65.9759 16.475 66.2067 16.475C66.2067 16.3542 66.2438 16.2375 66.2644 16.1125C66.0872 16.0667 65.91 16.0208 65.7245 15.9833C65.0321 15.825 64.2944 15.7083 63.5607 15.5667C62.2947 15.4137 61.0501 15.1145 59.8514 14.675C61.0096 14.5083 62.1636 14.4167 63.3217 14.3625C64.4098 14.3125 65.502 14.2875 66.5942 14.2667C67.9336 14.2375 69.2731 14.2083 70.6291 14.1167C69.8625 13.825 68.2139 13.9542 67.9419 13.3792L71.6924 13.4708C71.7172 13.3375 71.7378 13.2042 71.7625 13.0542L68.4653 12.3333C68.4653 12.2833 68.4653 12.2333 68.4942 12.1833C69.9532 12.0625 72.5827 12.9917 73.4399 12.2292C72.5662 11.8125 70.9011 11.7417 70.2581 11.2292C70.1896 11.1829 70.1308 11.1234 70.085 11.0542L70.9629 11.075L74.9814 11.175L75.0308 10.7333L73.7284 10.5375L69.2401 9.85L67.8842 9.64167C68.2963 9.19584 70.0562 8.80835 69.4627 8.17085L65.1187 9.42085C65.6751 8.43752 67.6286 7.54167 66.9115 6.75417L61.3187 10.3583C61.7308 9.33752 63.4206 8.47918 62.3614 7.85835C60.3295 9.22502 58.479 11.3417 56.3317 12.3333C56.785 11.1542 58.7551 9.64585 58.3677 8.58335L52.8779 13.1667L54.1926 10.4708C52.2432 10.7875 51.0397 12.7 49.8239 14.3208C49.4645 14.8125 49.0676 15.275 48.6369 15.7042C48.6946 15.2875 49.2304 14.7667 49.3746 14.325C49.4031 14.2742 49.4207 14.2179 49.4263 14.1598C49.4319 14.1017 49.4254 14.043 49.4071 13.9877C49.3889 13.9323 49.3593 13.8814 49.3203 13.8383C49.2814 13.7952 49.2339 13.7609 49.1809 13.7375L48.5339 14.3458L43.8436 18.75C44.0785 17.3458 44.3217 15.925 44.5607 14.4917C44.7256 13.5042 44.8946 12.5125 45.0594 11.525L44.602 11.4375C44.1033 12.4833 43.6004 13.5208 43.1059 14.5708H43.007C43.1759 12.6125 43.9425 9.83333 42.4506 8.43333C42.2362 9.42499 42.0137 10.4125 41.7952 11.4083C41.1111 9.82917 41.4119 7.59168 41.0616 5.80001C40.8638 5.80001 40.6495 5.80001 40.4681 5.80001C40.3404 6.85835 40.2126 7.92085 40.056 9.26251L37.6944 2.68333L37.1421 2.75001L37.2905 4.36251C35.8809 2.90001 34.2158 -0.0708177 32.0438 0.045849L33.8861 1.84168L30.1273 0.549999C31.644 1.95 33.9067 3.12916 35.6707 4.44999C33.882 4.51249 31.7883 3.67083 29.9007 3.41667C30.1026 4.84583 34.0963 5.56251 35.6707 6.67918C34.2735 6.96251 31.9284 5.82501 30.2221 5.61251C31.1412 7.22918 35.0566 8.36251 37.002 9.77918C35.5801 10.1167 33.4245 9.29583 31.7677 9.21666C32.2417 10.6 35.8479 11.2583 37.4801 12.3667C36.4456 13.0958 34.4755 11.95 34.1829 13.5042C28.215 10.5875 22.3089 7.5 14.8902 8.4625C11.3169 9.09166 5.68287 9.71249 4.23211 12.2875C6.04144 11.6875 7.85489 11.0958 10.0475 10.3667C8.43189 11.7458 7.12951 12.8667 5.81888 13.9625L6.23103 14.3542C7.87962 13.6958 9.63124 12.2708 11.251 11.9875C6.96053 16.3667 14.136 11.5042 16.3492 11.5458C15.1787 12.7542 14.0124 13.9542 12.8501 15.1625C12.9861 15.2542 13.1263 15.3417 13.2623 15.4417C15.323 14 17.2931 12.4333 20.3059 11.5958L15.8505 14.875C17.9113 15.0542 20.5573 13.1625 22.7829 12.6167C22.243 13.9125 19.4074 14.8958 18.0844 16.0667C18.2163 16.225 18.3399 16.3833 18.4677 16.5417C21.2744 14.9333 24.2584 13.7167 28.2109 13.8708L23.2197 16.3167L23.4176 16.6542C25.7174 15.9708 27.9141 14.9875 30.7662 15.225L26.7354 16.8917C27.122 16.9665 27.513 17.0166 27.9059 17.0417C30.1067 17.1958 32.7527 16.7875 34.9866 16.8792C35.3286 17.7125 33.544 17.5833 32.6291 18.0333L38.4239 19.525C33.2636 18.8647 28.0602 18.6139 22.8612 18.775C11.387 19.1917 0.193064 22.275 0.0117188 32.0667C0.588725 30.6792 1.11215 29.4042 1.63146 28.125C2.63298 28.7042 2.06421 30.5208 2.45575 31.525C2.6948 29.2625 3.12343 27.1083 4.92864 25.2333C5.34079 26.6333 5.75293 27.9792 6.16508 29.3125C7.29437 28.8167 6.55662 26.6333 6.98938 25.5625C7.81367 26.2542 7.77246 27.8583 8.28764 28.8583L8.76985 28.8208C8.74513 28.0792 8.72864 27.3375 8.71215 26.6C9.43341 26.8917 9.53645 28.1042 10.0228 28.7208C11.1644 25.55 10.5174 25.7333 12.0423 29.2292C12.0712 26.8292 12.2814 24.5542 14.0082 22.3167C14.0701 24.5667 14.1237 26.5583 14.1772 28.5667H14.4369C14.7666 27.0542 15.0963 25.5333 15.4178 24.0208C15.6842 24.4306 15.8035 24.9204 15.7558 25.4083C15.7558 26.7708 15.2365 28.475 16.2091 29.1583C15.9206 26.4167 16.7738 24.0083 19.0241 21.725C18.6119 23.8083 18.138 25.3792 19.3703 27.2708C20.005 25.75 20.6356 24.2167 21.2662 22.6875C22.4738 23.2208 20.1822 25.7042 21.736 26.0583C22.7994 24.1958 23.4093 22.0958 25.9276 20.6709C25.569 22.025 23.5824 23.5417 24.5345 24.4209C25.4495 22.4459 27.0692 21.0625 29.7811 20.2542C28.59 21.7042 27.1145 22.8125 26.7683 24.6167C27.9801 23.3083 29.0393 22.175 30.0944 21.0458C30.4447 22.2625 28.6312 23.1292 30.1397 24.2917C28.7837 24.8125 27.4237 25.3917 26.0924 26.0375C22.9244 27.5326 19.9578 29.4299 17.2642 31.6833C16.7243 32.1333 16.2091 32.6042 15.7228 33.0833C14.7773 33.9741 13.9035 34.9397 13.1098 35.9708C12.676 36.5661 12.2729 37.1836 11.9022 37.8208C10.5428 40.1077 9.83 42.7278 9.84144 45.3958C10.913 43.3125 11.9764 41.2708 13.0521 39.2C14.1772 40.6958 13.1922 43.5083 15.0263 45.3292C15.1334 43.1625 14.2597 40.95 15.3889 38.6625C16.7202 40.4708 17.3837 42.4667 19.7701 43.5667C18.7315 41.6708 17.3343 39.8542 17.3219 37.5917C17.3144 37.2408 17.3448 36.8901 17.4126 36.5458C17.5857 36.9 17.7547 37.2375 17.9401 37.5625C18.8079 39.2401 20.0495 40.6908 21.567 41.8C20.7427 40.3708 19.8607 38.9583 19.3909 37.5042C19.2449 37.0634 19.1387 36.6101 19.0735 36.15C19.417 36.2917 19.7695 36.41 20.1286 36.5042C20.2894 36.8167 20.4419 37.1375 20.6026 37.4542C21.1077 38.5955 21.8434 39.6173 22.7623 40.4542C22.5067 39.4125 22.2553 38.4 22.0122 37.4C21.8638 36.8 21.7154 36.2083 21.5712 35.6125C21.3816 34.85 21.1961 34.0958 21.0065 33.3375L21.4928 33.2708C21.8267 34.0417 22.1605 34.8083 22.5026 35.5792C22.7128 36.0667 22.9148 36.5583 23.1456 37.05L23.5577 36.9792C23.4794 36.4958 23.4052 36.0167 23.331 35.5417C23.1414 34.2917 22.9189 33.0709 22.7499 31.8417C22.8447 31.8167 22.9354 31.8 23.0302 31.7833C23.669 33.0333 24.3161 34.2458 24.9466 35.475C25.1033 35.7708 25.2516 36.0583 25.4083 36.3458C25.5726 36.0739 25.6662 35.7642 25.6803 35.4458C25.8039 33.9625 24.7942 31.8375 24.856 30.3417L25.297 30.2875C26.0677 32.1083 26.6777 34.0042 29.0063 35.1375C28.4252 33.1958 27.2258 31.35 27.8935 29.1125C28.7466 31.0042 29.6822 32.6417 31.8213 33.725C31.8213 33.725 31.846 33.725 31.8584 33.7458C31.8472 33.7339 31.8388 33.7197 31.8336 33.7042C30.692 32.2792 29.5998 30.8542 29.8965 28.8875C30.7703 30.1375 31.4256 31.3 33.1937 31.6375C33.2619 31.6598 33.3325 31.6738 33.4039 31.6792C33.3586 31.6167 33.3256 31.5542 33.2885 31.4917C32.526 30.2 31.813 28.9917 31.0876 27.7417L31.4668 27.6083C35.8356 32.3083 32.4725 28.075 33.7089 25.5958C34.3519 28.5125 35.0566 27.3458 35.8933 25.3667C36.4167 25.5167 36.12 26.1583 36.3302 26.7542L37.2946 25.9708C33.2597 33.125 29.7811 40.0792 30.5189 48.6625C31.2855 57.5708 35.3451 65.8875 40.2991 74.1084C40.5055 74.2719 40.6922 74.4593 40.8555 74.6667L40.9709 74.6875C41.0065 74.5957 41.0341 74.5009 41.0534 74.4042L41.0781 74.325H41.0039C40.3733 70.5042 39.7675 66.8667 39.1699 63.2208C38.1601 57.2084 37.6573 51.225 38.7577 45.5208C39.9488 39.3417 41.4161 33.2542 42.8792 27.1875C43.6705 27.3792 44.3382 28.4042 44.8245 30.4208H45.2367C45.3067 29.425 45.3727 28.4292 45.4469 27.4375H45.6735C45.9085 28.725 46.1475 30.0167 46.3783 31.3125H46.8853C46.943 30.5458 47.0048 29.7792 47.0625 29.0125H47.285C47.5571 30.7167 47.0913 32.9542 47.4375 34.6208C47.4581 34.7292 47.487 34.8292 47.5158 34.9292C46.9494 34.669 46.3368 34.5273 45.7148 34.5125C45.7696 35.7526 45.7545 36.9949 45.6694 38.2333C45.3768 40.5292 44.8451 42.7667 44.6061 45.0709C44.3052 47.8542 43.9755 50.6542 44.0662 53.5C44.1321 55.5833 45.0801 57.6667 47.2232 59.2792C47.3798 58.7125 47.4911 58.3792 47.5694 58.0292C48.4473 54.1667 49.0408 50.1833 50.2772 46.4875C51.1263 43.9417 52.7707 41.7375 54.2462 39.5208C54.5269 39.227 54.9063 39.05 55.3096 39.025C54.6446 40.9111 53.9852 42.7903 53.3312 44.6625C54.7573 43.3167 55.8041 41.6542 57.1189 40.1458C57.1927 40.3204 57.2493 40.5018 57.2879 40.6875C56.7521 42.4792 55.8618 44.0833 55.0293 45.8708L56.5913 44.6208C56.5336 44.8792 56.4595 45.15 56.3647 45.5125C56.0926 45.8958 55.9525 46.2542 56.3234 46.5375C56.4883 46.3333 56.6573 46.1208 56.8263 45.925C57.4909 45.6362 58.1213 45.2728 58.7057 44.8417C59.0436 45.9583 56.4306 47.6792 57.0241 48.7042C58.038 47.9958 58.6727 46.0125 60.0122 46.0625C59.4475 48.3583 57.8278 51.0083 57.7866 53.1458C60.4119 49.2292 61.2857 45.6458 60.9642 42.1958C61.2812 41.5834 61.5313 40.9379 61.7102 40.2708C61.7844 39.9931 61.8503 39.7153 61.908 39.4375C62.0844 38.6307 62.0248 37.7895 61.7364 37.0163C61.4481 36.2432 60.9435 35.5716 60.2842 35.0833C60.2388 35.0458 60.1894 35.0042 60.1358 34.9667C59.5826 34.5157 58.904 34.2506 58.1946 34.2083C56.3811 31.0708 53.8753 27.9583 51.1881 24.8208L48.7152 21.9708C50.2087 22.6837 51.5673 23.6553 52.7295 24.8417C53.2777 25.3875 53.7764 25.9542 54.2627 26.5083L54.5842 26.3833C54.3505 25.8313 54.0501 25.3107 53.6898 24.8333C53.2777 24.1833 52.8861 23.5458 53.084 23.0917C53.6693 23.6301 54.2122 24.2138 54.7078 24.8375C55.5939 25.9 56.4718 26.9875 57.5352 27.5042C57.0117 26.5958 56.4924 25.6833 55.969 24.7708L55.6846 24.2708L55.903 24.175C56.0967 24.3365 56.2798 24.5104 56.4512 24.6958C57.5558 25.8625 58.5119 27.5583 59.8803 28.0292C59.5835 27.0403 59.2854 26.0528 58.9859 25.0667L59.3775 24.975C60.0946 26.225 60.6139 27.6833 61.2404 29.0167C61.5775 29.761 62.0039 30.4607 62.5098 31.1C62.584 29.725 61.6401 27.7667 62.2542 26.6667C63.4289 28.525 63.874 31.3583 65.4525 32.7417C65.1681 30.8917 64.8796 29.05 64.6035 27.2042C66.1119 29.2875 66.8579 31.5 67.5503 33.8167C67.5998 34.0042 67.6616 34.1917 67.7152 34.3875C67.7646 34.1917 67.8059 34 67.8471 33.8042C68.1345 32.4543 68.2973 31.0803 68.3334 29.7L68.9063 29.6708L69.8007 33.725L69.8625 34.0167L69.8872 34.1375L69.8336 34.1C68.6631 33.2667 68.1603 33.6083 67.2041 35.1875C66.6312 36.1417 66.0254 37.0708 65.5184 38.0625C65.1434 38.7917 64.7766 39.525 64.4263 40.2667C62.8601 43.5667 61.6154 47.0083 61.5124 50.95C61.5124 51.3667 61.4835 51.8167 61.5124 52.2542C61.6649 55.1708 63.0991 57.5458 65.5143 58.6458C68.1315 59.8333 70.2128 59.0208 71.5976 57.2083C73.5553 54.6333 75.5996 52.0292 76.8731 49.0458C77.7716 46.9292 77.6397 44.1875 77.5655 41.6792C77.5655 41.2625 77.1534 40.7542 76.6299 40.2667C76.2178 39.8792 75.7809 39.5 75.4265 39.1542C75.1239 38.8798 74.7969 38.6343 74.4497 38.4208C74.5727 37.3952 74.603 36.3604 74.5404 35.3292C74.5404 35.0292 74.5404 34.725 74.5404 34.4292C74.5404 34.1333 74.5404 33.8208 74.5651 33.5292C74.5833 33.1766 74.626 32.8257 74.6929 32.4792L75.138 32.4583C75.2588 32.796 75.3579 33.1411 75.4347 33.4917C75.5007 33.7792 75.5501 34.0792 75.6037 34.3833C75.6573 34.6875 75.7026 34.9833 75.748 35.2833C75.9788 36.7917 76.2096 38.3042 76.9844 39.2958C77.2935 38.0458 77.0339 36.4083 77.4213 35.2125C77.4875 34.988 77.5861 34.7746 77.7139 34.5792C77.8245 34.7752 77.9223 34.9785 78.0065 35.1875C78.666 36.7667 78.9462 38.8417 80.0673 39.8583C79.754 37.2542 80.2775 37.2375 81.1759 38.2375C81.3985 38.4833 81.6417 38.7917 81.9013 39.1334C82.161 39.475 82.3629 39.7708 82.6102 40.1167L82.5608 40.2667C81.8848 42.35 81.2007 44.4042 80.6072 46.5167C79.0451 52.0917 78.1549 57.85 79.1276 64.0167C79.6677 67.6459 81.2155 71.0457 83.5911 73.8209C83.7065 73.5417 83.7972 73.4417 83.7807 73.3417C82.2681 63.4958 83.418 54.4375 88.0176 46.4458C89.4899 43.8815 91.6016 41.7524 94.1421 40.2708C94.6284 39.9931 95.1312 39.7264 95.6506 39.4708C96.3883 39.125 97.5423 39.4708 98.4985 39.5167C98.4655 39.7625 98.449 40.0167 98.4284 40.2708C98.4179 40.9283 98.3081 41.5802 98.1028 42.2042C97.8308 42.8875 97.159 43.3708 96.6438 43.9208C94.3276 46.3653 92.0099 48.8083 89.6909 51.25C88.1371 52.8917 87.6508 54.9333 88.0423 57.5C89.9299 56.2875 91.6445 55.2833 93.2436 54.1417C95.564 52.475 98.107 51.0042 99.9822 48.925C101.384 47.3708 102.191 45.1 102.686 42.9375C102.881 41.9995 102.723 41.0215 102.241 40.1958ZM19.0117 35.0292C19.015 34.9024 19.0247 34.7758 19.0406 34.65C19.2778 34.992 19.4965 35.3467 19.6959 35.7125L19.8772 36.05C19.5599 35.6708 19.2714 35.3458 19.0117 35.0292ZM30.1397 24.2375C30.0243 22.5708 31.0382 21.6 33.68 20.9042C33.1814 21.4958 32.6868 22.0709 32.1922 22.65C35.0772 21.2458 37.3111 21.0167 38.5022 21.875C35.8026 22.6375 32.9712 23.4333 30.1273 24.2375H30.1397ZM51.2252 36.3875C51.3653 37.2208 50.6523 38.1583 51.5631 38.3375C51.8599 37.6167 52.1649 36.8958 52.4616 36.1875C52.5894 35.875 52.7213 35.5708 52.849 35.2625C52.9438 35.0292 53.0469 34.7958 53.1417 34.5583C53.2516 34.7733 53.3294 35.0036 53.3725 35.2417C53.4296 35.5394 53.4504 35.843 53.4343 36.1458C53.4211 36.5553 53.37 36.9627 53.2818 37.3625C52.4245 38.1583 51.5714 38.9792 50.6853 39.7958C50.4668 39.3208 50.2731 38.8167 50.0712 38.3167C50.2401 38.0417 50.4091 37.7584 50.5987 37.4417L51.2252 36.3875ZM49.2757 36.6167C49.3211 36.5125 49.3623 36.4125 49.4035 36.3083C49.5271 36.0042 49.6549 35.6958 49.7868 35.3875C49.9187 35.0792 50.0382 34.7833 50.1618 34.4792C50.2319 34.3083 50.2978 34.1417 50.372 33.9708L50.6234 34.0167L50.5204 34.4625C50.4545 34.7667 50.3803 35.0708 50.3102 35.3667C50.2401 35.6625 50.166 35.9708 50.1041 36.2792C49.997 36.7292 49.8898 37.1792 49.7909 37.6333C49.6382 37.2863 49.4662 36.9482 49.2757 36.6208V36.6167ZM48.8224 31.3875C48.9336 31.3875 49.0408 31.4208 49.1521 31.4375C49.1308 32.4711 49.0066 33.4999 48.7811 34.5083C48.7358 34.8125 48.6863 35.1167 48.6451 35.4125C48.6451 35.5083 48.6451 35.6042 48.6204 35.6959C48.396 35.4494 48.1395 35.2349 47.8579 35.0583L47.9939 34.5333C48.2701 33.4958 48.5421 32.4458 48.8224 31.3875ZM71.713 32.1625C71.9315 32.6208 72.1252 33.0792 72.3065 33.5417C72.426 33.8375 72.5332 34.1333 72.6321 34.4292C72.731 34.725 72.83 35.0167 72.9165 35.3167C73.1514 36.1 73.3287 36.8875 73.5182 37.6875L73.4276 37.6083C72.628 36.8583 71.9521 35.9875 71.1772 35.2125C71.1772 34.9667 71.202 34.725 71.2102 34.4833C71.2185 34.2417 71.2102 33.8833 71.2102 33.5833C71.2102 33.525 71.2102 33.4667 71.2102 33.4083C71.2102 32.6 71.1443 31.7833 71.0989 30.975C71.3174 31.3875 71.5193 31.7708 71.713 32.1708V32.1625ZM75.072 41.1417C75.7438 41.8125 75.8633 43.5833 75.5584 44.5667C74.2527 48.7771 71.9542 52.6036 68.861 55.7167C68.3581 56.2292 67.4803 56.375 66.7755 56.6833C66.454 55.85 66.1202 55.0417 65.8358 54.2125C65.7534 53.9834 65.8358 53.7208 65.8358 52.9917C66.4211 48.825 68.5024 45.0167 71.4699 41.7417C71.5108 41.7018 71.5582 41.6694 71.61 41.6458C72.6568 41.0333 73.8892 39.9708 75.072 41.15V41.1417Z" fill="#FFFDFC"/>
<path d="M127.28 53.1583C127.254 53.35 127.214 53.5395 127.16 53.725C127.16 53.5667 127.131 53.4083 127.123 53.2542L127.28 53.1583Z" fill="#FFFDFC"/>
<path d="M145.393 56.3875L147.433 56.5375C146.811 58.2042 145.479 58.8375 143.724 58.1375C142.223 57.5375 141.626 56.2209 142.075 54.2625C142.31 53.2125 142.739 52.225 143.015 51.1833C143.142 50.5744 143.232 49.9579 143.283 49.3375L142.483 48.7458C142.001 49.3167 141.502 49.8708 141.036 50.4542C139.297 52.6333 137.513 54.775 135.848 57.0125C134.924 58.2625 133.787 58.9292 132.089 58.3875C130.391 57.8458 129.538 56.5917 129.204 54.9042C129.154 54.6458 129.117 54.3958 129.084 54.1458C128.86 52.4895 129.086 50.8025 129.74 49.2667C129.919 48.8426 130.132 48.4342 130.378 48.0458C132.081 45.2627 133.93 42.5741 135.918 39.9917C136.054 39.8125 136.198 39.6375 136.33 39.4583C137.274 38.2792 138.741 37.4167 140.183 36.8042C142.166 35.9708 144.519 37.5917 145.574 40.2083C145.827 40.8288 145.997 41.4803 146.081 42.1458C142.627 40.1292 140.525 41.7292 138.832 43.9209C137.18 46.0973 135.666 48.3768 134.298 50.7459C134.005 51.2459 134.384 52.2 134.454 52.9458C135.056 52.7375 135.782 52.675 136.239 52.3042C138.411 50.5542 140.484 48.6875 142.652 46.9333C143.629 46.1417 144.812 45.5917 146.225 46.6334C147.746 47.7542 147.548 49.1333 147.116 50.4208C146.683 51.7083 145.978 52.8833 145.537 54.1708C145.343 54.8208 145.442 55.6292 145.393 56.3875Z" fill="#FFFDFC"/>
<path d="M170.086 50.6042C170.032 50.7958 169.974 50.9833 169.912 51.1625C169.937 51.0458 169.97 50.9333 170.003 50.825L170.152 50.3625L170.11 50.5167L170.086 50.6042Z" fill="#FFFDFC"/>
<path d="M166.697 58.5583C164.76 58.625 162.48 57.1042 162.163 55.0917C161.966 53.5303 162.097 51.9445 162.546 50.4375C163.016 48.6542 163.902 47.0333 164.5 45.2958C164.665 44.8167 164.442 44.1625 164.401 43.5875C163.91 43.7125 163.263 43.6875 162.963 44.0042C161.178 45.8208 159.332 47.5917 157.786 49.6125C155.985 51.9583 154.489 54.55 152.84 57.0042C152.535 57.4458 151.925 58.1125 151.604 58C150.94 57.7625 150.079 57.1458 149.844 56.55C149.803 56.4417 149.761 56.3375 149.724 56.225C149.561 55.7633 149.445 55.2858 149.378 54.8C149.309 54.3455 149.325 53.8821 149.424 53.4333C149.97 51.3725 150.685 49.3614 151.563 47.4208C152.436 45.425 153.623 43.6042 154.493 41.5875C154.686 41.1309 154.852 40.6634 154.992 40.1875C155.276 39.2167 155.486 38.2042 155.762 37.225C156.415 37.4648 157.003 37.8587 157.475 38.374C157.947 38.8892 158.291 39.5109 158.478 40.1875C158.659 40.9329 158.652 41.7123 158.458 42.4542C157.976 44.3917 157.024 46.1542 156.661 48.3333C157.794 47.0833 158.882 45.8333 160.073 44.6417C161.265 43.45 162.468 42.0458 163.972 41.2208C164.546 40.9667 165.166 40.8355 165.792 40.8355C166.418 40.8355 167.038 40.9667 167.612 41.2208C168.436 41.6375 169.367 43.2708 169.359 44.2167C169.334 46.15 168.803 48.025 168.296 49.8458C167.884 51.2792 167.105 52.5542 166.717 53.9875C166.528 54.6875 166.866 55.5958 166.965 56.4125C167.735 56.2125 168.51 56.025 169.273 55.8083C169.433 55.7346 169.581 55.6377 169.714 55.5208C169.8 57.1625 168.477 58.4958 166.697 58.5583Z" fill="#FFFDFC"/>
<path d="M127.28 53.1583C127.254 53.35 127.214 53.5395 127.16 53.725C127.16 53.5667 127.131 53.4083 127.123 53.2542L127.28 53.1583Z" fill="#FFFDFC"/>
<path d="M127.131 53.2542C127.131 53.4083 127.131 53.5667 127.168 53.725C126.282 56.775 121.698 59.1125 118.962 58.625C116.382 58.1625 114.3 56.4708 113.765 53.7708C113.719 53.5375 113.678 53.3 113.641 53.0625C113.51 52.2207 113.456 51.3685 113.48 50.5166C113.496 49.9385 113.56 49.3627 113.674 48.7958C114.361 45.6957 115.668 42.7705 117.515 40.2C118.331 39.0393 119.212 37.9264 120.153 36.8667C121.2 35.6833 122.539 34.4083 124.596 35.3167C126.653 36.225 126.912 38.1292 127.238 39.9L127.287 40.1958C127.642 42.4292 127.176 43.7833 125.639 45.1958C125.564 44.6875 125.531 44.2667 125.445 43.8542C125.173 42.5583 124.328 42.0792 123.384 42.6917C119.485 45.1917 117.082 48.8083 116.547 53.6416C116.489 54.1416 117.598 55.3083 118.298 55.5625C121.06 56.5542 123.343 55.6583 125.437 54.3583C125.894 54.0375 126.405 53.7167 127.131 53.2542Z" fill="#FFFDFC"/>
<path d="M127.28 53.1583C127.254 53.35 127.214 53.5395 127.16 53.725C127.16 53.5667 127.131 53.4083 127.123 53.2542L127.28 53.1583Z" fill="#FFFDFC"/>
<path d="M107.794 53.9167C107.625 54.2352 107.543 54.5931 107.555 54.9542C107.692 55.604 107.871 56.2442 108.09 56.8708C108.655 56.8011 109.208 56.6611 109.739 56.4542C110.285 56.0794 110.792 55.6494 111.252 55.1708C110.749 57.8583 109.265 59.1417 107.34 58.7042C106.275 58.4486 105.338 57.8122 104.701 56.9123C104.063 56.0124 103.77 54.9099 103.874 53.8083C104.245 50.375 105.065 47.0458 105.865 43.7375C106.169 42.5429 106.533 41.3649 106.957 40.2083C107.287 39.2708 107.633 38.3167 107.975 37.2917C108.981 37.3872 109.922 37.837 110.633 38.5625C110.693 38.6591 110.757 38.7523 110.827 38.8417C110.916 38.9555 111.017 39.0589 111.128 39.15C111.351 39.4731 111.527 39.8266 111.651 40.2C111.812 40.6737 111.874 41.1759 111.833 41.675C111.655 43.8208 110.938 45.8708 110.262 47.8667C109.57 49.9375 108.618 51.9 107.794 53.9167Z" fill="#FFFDFC"/>
<path d="M111.132 39.1417C111.021 39.0506 110.92 38.9472 110.831 38.8333C110.761 38.744 110.696 38.6508 110.637 38.5542C110.817 38.7362 110.983 38.9327 111.132 39.1417Z" fill="#FFFDFC"/>
</g>
<defs>
<clipPath id="clip0_15_13">
<rect width="190" height="75" fill="white"/>
</clipPath>
</defs>
</svg>
