<svg width="696" height="688" viewBox="0 0 696 688" fill="none" xmlns="http://www.w3.org/2000/svg">
<path d="M694.829 382.658C695.291 383.125 696.062 382.622 695.805 382.018C695.39 381.058 694.967 380.106 694.537 379.16C694.101 378.215 693.656 377.277 693.197 376.339C692.738 375.402 692.272 374.471 691.791 373.547C691.31 372.624 690.814 371.708 690.312 370.792C689.809 369.883 689.292 368.974 688.767 368.08C688.242 367.179 687.703 366.284 687.157 365.397C686.61 364.51 686.049 363.63 685.481 362.758C684.913 361.885 684.33 361.02 683.74 360.162C683.15 359.304 682.552 358.454 681.94 357.61C681.328 356.767 680.709 355.931 680.075 355.102C679.442 354.273 678.8 353.451 678.144 352.637C677.496 351.823 676.833 351.016 676.163 350.223C675.493 349.423 674.807 348.638 674.116 347.86C673.424 347.075 672.724 346.304 672.01 345.541C671.303 344.778 670.582 344.029 669.854 343.28C669.125 342.538 668.389 341.797 667.639 341.07C666.896 340.343 666.138 339.63 665.373 338.918C664.608 338.212 663.836 337.514 663.056 336.824C662.269 336.133 661.482 335.449 660.681 334.78C659.886 334.112 659.078 333.45 658.262 332.803C657.446 332.148 656.622 331.509 655.792 330.876C654.961 330.251 654.123 329.626 653.278 329.015C652.433 328.411 651.581 327.808 650.721 327.219C649.861 326.63 648.994 326.055 648.12 325.481C647.245 324.914 646.364 324.362 645.475 323.816C644.586 323.271 643.69 322.733 642.786 322.209C641.883 321.686 640.979 321.17 640.061 320.668C639.15 320.166 638.225 319.672 637.3 319.2C636.375 318.72 635.442 318.247 634.51 317.789C633.57 317.339 632.623 316.888 631.675 316.459C630.728 316.023 629.774 315.601 628.812 315.194C606.914 305.713 583.53 302.627 560.135 305.223C558.496 305.405 558.071 303.725 559.684 303.38C559.797 303.356 559.911 303.332 560.024 303.308C561.476 303.004 561.556 300.757 560.11 300.427C558.687 300.103 558.774 298.18 560.227 298.037C566.952 297.379 573.663 297.235 580.432 297.01C581.848 296.964 582.289 295.209 581.023 294.572C579.574 293.843 580.088 292.041 581.682 292.346C583.193 292.635 584.704 292.915 586.219 293.128C588.45 293.442 590.711 293.642 592.969 293.856C594.408 293.992 595.189 291.65 593.927 290.945C592.619 290.214 593.491 287.832 594.962 288.114C598.783 288.848 602.561 289.507 606.436 290.181C608.319 290.509 609.399 288.44 607.833 287.343C606.046 286.092 607.025 283.157 609.147 283.658C613.028 284.572 616.888 285.585 620.732 286.534C624.239 287.4 627.775 288.192 631.298 289.018C633.078 289.435 634.327 287.219 632.907 286.067C631.283 284.749 633.136 280.568 635.121 281.225C642 283.502 648.846 285.915 655.742 288.115C657.303 288.613 658.322 286.884 657.042 285.862C655.582 284.695 656.924 281.684 658.747 282.097C663.362 283.141 668.004 284.06 672.639 285.009C676.302 285.759 678.678 280.892 675.602 278.765C674.575 278.055 673.532 277.364 672.469 276.697C653.453 264.758 627.698 256.601 605.111 258.629C603.253 258.804 601.396 259.036 599.552 259.327C597.709 259.625 595.88 259.974 594.059 260.381C592.237 260.796 590.43 261.261 588.638 261.792C586.846 262.315 585.075 262.904 583.327 263.544C570.299 268.415 553.644 279.176 542.956 287.857C540.647 289.731 538.343 291.932 536.031 294.113C534.334 295.713 533.475 294.849 535.146 293.222C546.909 281.741 560.934 270.712 575.962 263.316C577.653 262.483 577.159 259.9 575.274 259.944C573.313 259.99 572.6 257.594 574.454 256.954C578.081 255.703 581.878 254.798 585.632 253.972C587.369 253.59 587.439 251.295 585.709 250.886C583.88 250.454 583.795 247.689 585.612 247.205C591.38 245.668 597.139 244.012 602.797 242.147C604.695 241.521 604.578 238.916 602.627 238.486C600.577 238.034 600.394 235.372 602.442 234.911C606.682 233.957 611.088 233.306 615.151 232.477C618.073 231.88 620.99 231.163 623.914 230.514C625.178 230.234 625.259 228.422 624.011 228.079C622.594 227.689 622.721 224.836 624.173 224.612C629.307 223.818 634.421 222.882 639.551 222.063C640.792 221.865 640.924 220.118 639.719 219.766C638.491 219.406 638.604 217.58 639.87 217.39C644.96 216.628 650.051 215.819 655.085 214.817C659.579 213.923 664.083 212.763 668.605 211.943C669.25 211.826 669.295 210.902 668.658 210.745C667.711 210.513 666.757 210.295 665.81 210.084C664.855 209.873 663.901 209.676 662.939 209.495C661.984 209.313 661.023 209.139 660.061 208.978C659.093 208.819 658.131 208.666 657.161 208.528C656.2 208.39 655.231 208.266 654.261 208.157C653.292 208.041 652.324 207.939 651.347 207.851C650.378 207.757 649.402 207.684 648.433 207.619C647.457 207.553 646.481 207.502 645.511 207.459C644.535 207.415 643.559 207.386 642.583 207.372C641.606 207.35 640.63 207.35 639.654 207.357C638.677 207.364 637.701 207.379 636.725 207.408C635.748 207.445 634.779 207.488 633.803 207.539C632.827 207.597 631.85 207.663 630.881 207.743C629.905 207.823 628.936 207.91 627.967 208.012C626.998 208.113 626.029 208.23 625.06 208.361C624.091 208.484 623.122 208.622 622.16 208.775C621.198 208.928 620.237 209.088 619.275 209.262C618.313 209.437 617.359 209.626 616.404 209.822C615.443 210.018 614.495 210.229 613.541 210.447C612.594 210.673 611.647 210.905 610.699 211.152C609.752 211.392 608.812 211.654 607.872 211.923C606.94 212.192 606 212.469 605.067 212.759C604.142 213.05 603.209 213.356 602.291 213.668C601.366 213.981 600.441 214.308 599.53 214.643C598.612 214.985 597.701 215.326 596.798 215.69C595.887 216.046 594.984 216.417 594.088 216.802C593.192 217.18 592.295 217.573 591.406 217.98C590.517 218.38 589.636 218.794 588.762 219.223C587.88 219.645 587.006 220.081 586.139 220.532C585.272 220.975 584.412 221.433 583.56 221.906C582.7 222.371 581.847 222.851 581.009 223.338C570.049 229.605 560.493 237.679 552.102 246.882C548.039 251.338 544.086 249.132 547.276 244.016C549.944 239.733 552.562 235.396 555.337 231.171C556.318 229.679 554.409 227.765 552.977 228.831C551.498 229.933 549.6 228.055 550.775 226.634C553.275 223.614 555.882 220.687 558.627 217.958C562.25 214.359 566.159 211.02 570.12 207.752C571.466 206.643 570.204 204.533 568.597 205.208C566.935 205.906 565.441 203.471 566.874 202.378C569.877 200.089 572.971 197.878 576.145 195.908C577.527 195.051 576.694 192.454 575.095 192.749C573.642 193.016 572.766 191.152 573.936 190.25C579.836 185.705 585.944 181.445 592.252 177.467C595.148 175.635 593.832 172.091 590.504 172.909C568.203 178.39 549.967 190.425 535.313 209.414C523.065 225.286 515.372 243.767 513.929 263.82C513.745 266.38 509.177 266.913 508.364 264.478C501.282 243.27 489.291 226.029 468.815 212.031C451.416 200.144 429.574 192.03 408.474 190.757C402.539 190.397 401.833 197.576 407.504 199.365C407.939 199.502 408.375 199.64 408.809 199.78C411.966 200.796 415.092 201.904 418.216 203.018C420.229 203.736 419.69 207.079 417.553 207.14C415.561 207.198 415.221 209.526 417.145 210.046C420.679 211.001 424.274 211.835 427.687 212.918C430.727 213.886 433.718 215.006 436.684 216.194C438.262 216.827 437.515 219.912 435.816 219.853C434.286 219.799 433.8 221.85 435.192 222.489C440.857 225.089 446.445 227.82 452.029 230.622C454.762 231.994 453.699 234.74 450.696 234.158C449.939 234.012 449.18 233.87 448.422 233.734C446.419 233.374 445.465 236.189 447.292 237.086C450.815 238.816 454.371 240.491 457.828 242.327C463.647 245.421 469.149 248.892 474.495 252.626C476.045 253.708 474.588 256.514 472.757 256.043C471.048 255.604 470.022 257.881 471.418 258.961C474.622 261.438 477.677 264.002 480.598 266.671C484.191 269.954 480.252 273.655 476.256 270.875C459.033 258.893 440.517 251.793 416.279 250.812C412.919 250.676 409.75 249.163 407.515 246.651C403.252 241.856 398.689 237.452 393.916 233.065C392.969 232.178 392.007 231.306 391.031 230.44C390.062 229.575 389.086 228.724 388.095 227.874C387.112 227.03 386.113 226.194 385.108 225.365C384.103 224.544 383.09 223.729 382.07 222.922C381.049 222.116 380.022 221.323 378.988 220.538C377.946 219.753 376.904 218.982 375.847 218.212C374.798 217.448 373.742 216.699 372.671 215.958C371.607 215.216 370.529 214.482 369.443 213.762C368.365 213.035 367.272 212.329 366.179 211.631C365.079 210.926 363.979 210.243 362.871 209.566C361.757 208.883 360.642 208.221 359.52 207.567C358.397 206.912 357.261 206.265 356.132 205.633C354.995 205.001 353.851 204.383 352.7 203.772C351.549 203.161 350.398 202.565 349.232 201.976C348.073 201.387 346.908 200.812 345.735 200.253C344.562 199.686 343.381 199.141 342.201 198.595C341.013 198.057 339.826 197.534 338.631 197.018C337.436 196.501 336.241 195.992 335.039 195.505C333.83 195.011 332.62 194.531 331.411 194.066C330.194 193.6 328.977 193.142 327.753 192.699C326.529 192.255 325.305 191.826 324.074 191.405C322.836 190.983 321.604 190.583 320.365 190.183C319.127 189.791 317.881 189.412 316.635 189.042C315.382 188.671 314.136 188.315 312.876 187.973C311.622 187.624 310.369 187.296 309.101 186.977C307.841 186.657 306.58 186.352 305.313 186.061C304.045 185.763 302.77 185.479 301.502 185.217C300.227 184.948 298.952 184.694 297.67 184.447C296.395 184.207 295.113 183.974 293.83 183.756C292.548 183.538 291.266 183.334 289.976 183.145C288.686 182.956 287.397 182.774 286.107 182.607C284.818 182.439 283.528 182.287 282.232 182.149C280.325 181.95 278.431 181.785 276.544 181.655C271.363 181.299 269.947 174.783 274.912 173.263C279.431 171.88 283.927 170.676 287.859 169.857C289.726 169.468 290.216 166.188 288.521 165.313C286.789 164.42 287.569 162.7 289.392 163.387C293.825 165.059 298.191 166.921 302.799 168.073C307.303 169.199 311.907 169.777 316.519 170.315C318.95 170.599 320.771 166.04 318.898 164.465C317.055 162.915 318.721 159.77 320.997 160.558C326.987 162.631 332.863 164.978 338.835 167.295C341.791 168.444 344.137 164.461 341.667 162.472C340.898 161.852 340.129 161.231 339.363 160.607C336.599 158.359 338.801 154.921 342.03 156.426C346.948 158.718 351.838 161.073 356.765 163.333C358.241 164.009 359.722 164.663 361.207 165.304C363.788 166.418 366.125 162.902 364.152 160.899C362.162 158.88 364.378 155.685 366.908 156.965C370.245 158.653 373.566 160.372 376.896 162.024C381.735 164.411 386.604 166.736 391.5 169C393.725 170.029 395.766 166.858 393.973 165.187C392.203 163.537 394.144 160.664 396.323 161.716C403.754 165.308 411.146 168.981 418.58 172.563C419.451 172.982 420.241 171.844 419.554 171.164C418.855 170.474 419.638 169.507 420.47 170.03C423.928 172.202 427.421 174.367 431.031 176.252C432.01 176.763 432.75 175.548 431.909 174.831C431.093 174.136 431.895 172.902 432.884 173.319C437.186 175.133 441.541 176.827 445.885 178.553C449.203 179.871 452.048 175.866 449.475 173.391C422.069 147.036 383.763 128.456 346.383 125.504C303.674 122.131 267.427 138.613 235.537 165.827C234.385 166.811 233.453 165.875 234.506 164.785C243.012 155.973 252.274 149.706 263.396 143.349C264.252 142.859 263.993 141.548 263.014 141.433C261.971 141.31 261.713 139.831 262.664 139.383C272.979 134.53 283.115 129.676 293.598 125.562C296.946 124.248 296.062 118.16 292.466 118.202C289.009 118.243 288.528 115.524 291.933 114.925C294.75 114.429 297.338 114.006 299.237 113.653L323.591 109.195C326.509 108.661 326.58 105.159 323.656 104.663C320.672 104.157 320.874 100.917 323.89 100.677C332.793 99.9676 341.828 99.7143 350.753 99.5602C352.909 99.5229 353.426 96.6121 351.402 95.8684C349.192 95.056 350.01 90.682 352.365 90.719C357.425 90.7984 362.491 90.8867 367.502 91.2591C369.586 91.414 370.552 88.3933 368.638 87.5508C366.688 86.692 367.218 82.6579 369.346 82.5405C380.019 81.9518 390.709 81.4218 401.377 81.1542C401.832 81.143 402.288 81.1332 402.744 81.1245C407.796 81.0286 408.931 74.4201 404.058 73.0841C370.128 63.7631 335.017 64.8976 303.04 80.1218C275.609 93.1799 253.066 114.977 234.983 139.064C234.433 139.797 233.891 140.533 233.355 141.274C231.853 143.346 230.063 142.311 231.384 140.119C234.801 134.433 238.225 128.769 242.152 123.418C245.279 119.148 248.612 115.029 251.925 110.896C253.384 109.076 251.103 106.565 249.103 107.767C247.078 108.984 245.545 106.869 247.339 105.331C251.907 101.416 256.565 97.5963 261.139 93.7102C263.584 91.6332 265.986 89.5078 268.379 87.3737C270.339 85.6259 268.526 82.566 266.09 83.5448C265.992 83.5842 265.894 83.6236 265.796 83.6631C263.233 84.6959 262.165 82.6879 264.549 81.2919L286.987 68.3516C288.875 67.2624 287.864 64.316 285.707 64.6284C283.398 64.9628 282.091 61.2796 284.188 60.256C287.26 58.7557 290.346 57.3128 293.401 55.9469C297.571 54.0803 301.842 52.347 306.013 50.4338C307.529 49.7386 306.98 47.6481 305.314 47.7364C303.475 47.8338 302.945 45.188 304.689 44.5965C311.524 42.2781 318.364 39.9805 325.186 37.6201C327.44 36.8401 326.97 33.9059 324.586 33.9901C322.254 34.0724 321.367 31.0501 323.45 29.9979C329.656 26.8625 336.004 24.0972 342.523 21.4484C346.002 20.033 345.122 15.7264 341.377 16.0153C304.114 18.8895 271.24 33.0039 243.676 60.1787C232.442 71.2538 224.035 81.5415 218.102 94.1475C216.51 97.5314 209.491 96.7494 208.857 93.0636C208.726 92.2568 208.587 91.4424 208.442 90.6351C208.289 89.8283 208.129 89.021 207.968 88.2141C207.801 87.4144 207.626 86.6071 207.437 85.8074C207.255 85.0077 207.065 84.2079 206.861 83.4082C206.664 82.6156 206.453 81.8159 206.234 81.0237C206.016 80.231 205.79 79.4459 205.557 78.6533C205.316 77.8682 205.076 77.0827 204.821 76.2977C204.573 75.5197 204.311 74.7346 204.041 73.9637C203.771 73.1858 203.495 72.4078 203.21 71.6369C202.919 70.8661 202.627 70.1028 202.329 69.3323C202.023 68.569 201.717 67.8128 201.396 67.0495C201.075 66.2933 200.748 65.537 200.413 64.7884C200.078 64.0393 199.735 63.2906 199.385 62.549C199.035 61.8004 198.679 61.0659 198.307 60.3315C197.943 59.5899 197.564 58.8626 197.185 58.1356C196.799 57.4012 196.413 56.6814 196.012 55.9616C195.611 55.2418 195.211 54.5291 194.796 53.8168C194.38 53.1041 193.958 52.399 193.528 51.701C193.105 50.9958 192.668 50.2978 192.224 49.6068C191.779 48.9163 191.327 48.2254 190.868 47.542C190.409 46.8586 189.943 46.1823 189.469 45.5136C188.996 44.8373 188.515 44.1686 188.027 43.5069C187.538 42.8453 187.043 42.1908 186.54 41.5367C186.038 40.8897 185.528 40.2427 185.018 39.6029C184.5 38.963 183.976 38.3231 183.444 37.6979C182.919 37.0656 182.38 36.4403 181.841 35.8222C181.295 35.2041 180.748 34.5935 180.187 33.9901C179.633 33.3795 179.072 32.7831 178.504 32.1868C177.929 31.5909 177.353 31.0016 176.777 30.4199C176.195 29.8382 175.605 29.2641 175.007 28.6966C174.417 28.1295 173.812 27.5625 173.207 27.0097C172.603 26.4497 171.991 25.9044 171.371 25.3592C158.614 14.2788 142.651 5.79395 126.578 0.639414C123.707 -0.280788 122.446 2.62343 124.892 4.38552C131.603 9.21967 138.168 14.1663 144.64 19.3506C145.965 20.4116 144.905 22.6495 143.225 22.4098C141.456 22.1575 140.817 24.4584 142.393 25.2999C143.883 26.0952 145.345 26.9472 146.76 27.904C149.22 29.5654 151.556 31.4064 153.899 33.2352C155.095 34.1685 153.894 36.6926 152.417 36.3456C150.966 36.0047 150.162 38.0939 151.405 38.9158C156.088 42.0126 160.498 45.4675 164.774 49.1043C166.332 50.4301 164.157 53.6458 162.273 52.849C160.553 52.1221 159.178 54.2862 160.554 55.5481C165.086 59.7055 169.56 63.9262 173.973 68.2103C174.956 69.1639 173.686 71.0319 172.397 70.5706C171.051 70.0887 169.629 72.6756 170.647 73.6796C174.779 77.752 178.006 82.1491 182.125 87.5082C183.08 88.7488 181.726 90.0756 180.492 89.1123C179.895 88.6461 179.296 88.1815 178.696 87.7181C177.179 86.5448 174.768 88.8453 175.808 90.4569C181.584 99.402 187.693 110.287 192.565 120.897C194.593 125.314 191.7 126.357 189.353 122.102C173.666 93.6666 149.761 66.7507 118.6 55.2343C92.5023 45.5935 60.9982 47.2076 35.811 58.9061C34.9855 59.291 35.2341 60.4189 36.1443 60.4518C42.9587 60.6981 49.7568 61.2029 56.539 61.9669C60.772 62.4401 64.9903 63.0144 69.1939 63.6873C71.2285 64.0131 71.1648 66.9544 69.145 67.362C67.2649 67.7414 67.4017 70.1034 69.3017 70.3658C78.9707 71.7008 88.7138 72.5876 98.3743 73.978C98.8259 74.0434 99.2783 74.1076 99.7312 74.1713C101.652 74.4414 101.475 76.5007 99.5476 76.712C97.7697 76.9068 97.7269 81.5585 99.4611 81.9962C107.188 83.9465 115.03 86.6043 122.429 89.2692C124.716 90.0928 124.211 93.8614 121.804 94.1978C119.258 94.5537 119.01 99.5702 121.448 100.384C128.183 102.633 135.171 105.479 141.684 108.379C143.664 109.26 142.763 111.816 140.666 111.268C138.704 110.755 137.495 113.246 139.165 114.397C153.805 124.493 168.479 132.441 180.368 145.156C181.968 146.868 180.447 148.091 178.744 146.48C157.084 125.97 130.731 113.13 100.618 111.873C72.7207 110.702 39.3081 119.318 15.0389 132.986C12.2677 134.545 9.52586 136.267 6.84371 138.105C3.85755 140.152 6.2098 144.723 9.73906 143.917C15.3655 142.633 21.0242 141.466 26.6246 140.09C28.2131 139.7 29.4929 142.494 28.1549 143.435C26.9209 144.302 27.8124 146.148 29.2682 145.752C38.0491 143.367 46.8515 140.976 55.5653 138.336C57.6533 137.703 59.4491 141.387 57.6562 142.63C56.0057 143.775 57.1442 146.402 59.0962 145.93C66.0931 144.236 73.1656 142.336 80.1214 140.226C83.3947 139.232 85.9726 143.913 83.323 146.076C80.8662 148.083 82.8669 151.93 85.9464 151.171C94.0132 149.181 102.085 147.4 110.258 145.876C113.013 145.363 113.875 147.96 111.431 149.33C107.922 151.3 109.947 156.448 113.913 155.765C119.358 154.828 124.834 154.024 130.306 153.602C132.779 153.411 133.168 156.33 130.819 157.129C128.724 157.842 129.132 160.548 131.338 160.73C136.178 161.129 141.026 161.405 145.878 161.69C150.938 161.983 156.059 162.105 161.063 162.933C162.086 163.103 162.038 164.387 161.01 164.525C159.963 164.665 159.823 166.209 160.829 166.528C161.656 166.79 162.481 167.056 163.305 167.324C165.007 167.879 164.384 170.457 162.606 170.245C115.061 164.559 75.9961 168.793 34.4782 199.221C21.7223 208.572 11.1401 218.883 1.97836 230.578C-1.77951 235.374 4.44785 240.902 9.42038 237.38C13.0044 234.841 16.5507 232.45 19.8791 230.357C21.2076 229.521 22.7259 230.927 22.039 232.338C21.2843 233.889 23.1153 235.183 24.3525 233.982C26.7437 231.661 29.1108 229.326 31.4514 226.962C33.0582 225.339 36.194 227.44 35.3214 229.55C34.515 231.501 36.9024 233.124 38.4254 231.662C44.0333 226.282 49.5441 220.85 54.9493 215.301C57.1311 213.061 62.0574 216.374 60.8827 219.272C59.8492 221.822 63.0148 224.1 65.1761 222.398C73.6986 215.687 82.5642 209.469 91.4332 203.217C93.5296 201.739 96.3777 204.41 95.1491 206.662C93.9605 208.84 96.9929 211.271 99.0762 209.923C100.063 209.284 101.048 208.652 102.017 208.011C107.234 204.558 112.414 201.068 117.726 197.76C118.337 197.38 118.952 197.003 119.569 196.629C121.836 195.251 124.621 198.227 123.147 200.433C121.802 202.446 124.076 204.866 126.278 203.86C129.041 202.598 131.834 201.393 134.578 200.152C141.345 197.087 148.16 193.859 155.175 191.34C156.099 191.008 156.626 191.955 155.806 192.494C155.028 193.005 155.358 194.217 156.289 194.229C157.521 194.244 158.751 194.262 159.978 194.283C162.398 194.324 162.493 197.461 160.105 197.854C153.044 199.018 146.043 200.525 139.227 202.537C132.006 204.667 125.216 207.699 118.396 210.832C94.4041 221.869 73.9235 236.192 56.9328 256.615C56.7825 256.796 57.0193 257.03 57.2002 256.88C61.4103 253.384 65.7673 249.946 70.3358 246.843C72.132 245.623 73.2622 247.443 71.6385 248.885C71.1416 249.326 70.6499 249.774 70.1638 250.231C49.1007 270.036 35.0754 299.191 29.9243 327.365C29.0203 332.18 35.1804 334.021 37.6513 329.79C38.912 327.631 40.1882 325.487 41.4724 323.359C42.8386 321.101 44.2855 318.885 45.6973 316.649C46.5526 315.295 48.8796 315.976 48.8624 317.578C48.8447 319.224 51.037 319.605 51.6301 318.069C53.4568 313.339 55.3333 308.608 57.263 303.91C58.2634 301.475 61.9138 302.261 61.9824 304.893C62.0476 307.399 65.2303 307.823 66.1145 305.476C67.7831 301.048 69.4654 296.626 71.1324 292.197C72.4177 288.782 77.6715 289.508 78.1268 293.128C78.4915 296.017 83.1527 296.4 84.0288 293.624C85.8197 287.947 87.6464 282.272 89.5375 276.625C90.6519 273.298 95.7551 274.057 96.0985 277.549C96.4085 280.703 100.577 281.196 101.82 278.282C104.158 272.802 106.629 267.394 109.194 261.959C109.951 260.357 110.736 258.756 111.524 257.152C112.972 254.201 117.542 254.638 118.272 257.843C119.045 261.235 124.265 261.822 125.836 258.718C129.884 250.721 134.551 243.143 139.28 235.52C141.033 232.693 145.282 234.049 145.042 237.367C144.81 240.569 148.879 241.873 150.789 239.292C154.22 234.656 158.055 230.036 162.214 225.888C167.494 220.623 172.947 225.454 168.394 231.359C165.862 234.642 163.151 237.941 160.384 241.856C152.723 252.686 145.562 264.935 140.658 277.438C140.233 278.522 141.632 279.45 142.564 278.752C143.627 277.955 144.312 279.009 143.326 279.898C141.78 281.292 140.342 282.76 139.175 284.337C130.461 296.109 124.99 324.311 123.707 338.881C123.573 340.584 126.151 341.174 126.911 339.645C128.12 337.213 129.448 334.857 130.909 332.583C132.58 329.982 135.524 331.947 134.371 334.816C127.542 351.814 126.332 365.94 129.712 384.696C130.147 387.11 133.23 387.011 133.611 384.588C134.018 381.988 136.676 382.431 136.7 385.062C136.821 398.105 138.881 409.094 143.486 420.349C145.83 426.079 153.899 423.461 153.68 417.274C153.492 411.971 153.448 406.661 153.508 401.34C153.53 399.462 156.069 398.885 156.944 400.547C157.864 402.298 160.422 401.465 160.17 399.503C159.486 394.186 158.813 388.856 158.232 383.527C157.97 381.123 161.039 380.153 162.275 382.233C163.518 384.324 166.482 383.131 166.127 380.724C165.33 375.327 164.645 369.909 163.835 364.518C163.446 361.928 166.97 360.585 168.234 362.879C169.436 365.06 172.854 364.221 172.804 361.731C172.724 357.782 172.631 353.833 172.588 349.882C172.546 345.88 172.561 341.824 172.485 337.762C172.414 334.025 177.882 332.387 179.318 335.838C180.649 339.037 185.172 338.346 185.304 334.884C185.693 324.694 185.495 314.477 184.139 304.405C183.861 302.335 186.465 301.44 187.207 303.393C187.943 305.331 191.133 304.908 191.153 302.835C191.229 294.823 190.958 286.747 189.592 278.972C189.123 276.319 188.486 273.687 187.776 271.071C187.406 269.704 189.137 268.913 189.847 270.137C190.588 271.412 191.292 272.709 191.956 274.049C192.217 274.575 193.133 274.331 193.367 273.793C193.444 273.616 193.635 273.517 193.825 273.553C194.374 273.654 194.873 273.91 195.352 274.218C196.231 274.782 196.748 275.779 196.79 276.822C197.406 291.976 196.986 308.277 199.222 323.263C199.439 324.72 199.128 326.208 198.316 327.437C198.241 327.552 198.165 327.667 198.089 327.782C196.848 329.674 197.179 332.115 198.711 333.78C199.615 334.762 200.055 336.068 200.035 337.401C199.908 346.151 201.152 354.795 202.584 363.42C202.953 365.655 203.407 367.908 203.794 370.16C204.285 373.017 201.96 375.41 201.687 378.296C201.167 383.975 206.78 388.437 207.69 394.066C209.15 403.104 210.763 412.113 212.536 421.095C212.81 422.485 212.355 423.924 211.302 424.871C209.435 426.552 209.36 429.487 211.25 431.142C212.18 431.957 213.106 432.777 214.006 433.616C215.093 434.629 215.778 435.989 216.05 437.45C218.198 449.023 221.428 460.605 222.511 472.321C222.644 473.759 222.122 475.173 221.124 476.216C219.206 478.222 219.374 481.358 221.422 483.231C222.118 483.867 222.809 484.506 223.489 485.156C224.669 486.284 225.418 487.781 225.691 489.391C227.602 500.673 229.496 511.981 230.687 523.362C230.861 525.03 230.117 526.655 228.764 527.645C226.456 529.333 226.257 532.638 228.422 534.505C229.51 535.444 230.6 536.381 231.64 537.359C232.714 538.37 233.42 539.684 233.68 541.136C235.544 551.565 238.432 581.612 234.911 586.904C233.778 588.618 233.167 590.713 234.37 592.379C235.121 593.419 235.905 594.411 236.743 595.381C238.239 597.112 239.191 599.275 239.19 601.563C239.186 607.367 239.092 613.193 238.844 619.009C238.633 623.954 232.237 625.498 229.37 621.464C228.903 620.807 228.435 620.161 227.967 619.526C224.615 614.982 218.968 619.824 221.367 624.935C223.018 628.451 218.034 632.425 214.67 630.483C199.831 621.915 184.207 618.147 165.601 620.58C163.454 620.858 163.528 623.927 165.659 624.308C174.818 625.945 183.311 628.25 191.345 631.739C195.284 633.449 191.977 639.457 187.726 638.851C183.445 638.241 182.807 645.385 186.816 647.003C197.32 651.243 206.94 657.221 213.6 665.41C213.84 665.695 213.643 666.123 213.271 666.145C205.857 666.599 198.423 667.403 191.004 668.511C177.058 670.592 179.599 687.26 193.7 687.297C209.234 687.337 224.769 687.407 240.303 687.345L489.488 687.375C504.556 687.377 507.641 671.758 493.027 668.084C481.394 665.159 469.931 662.959 460.131 661.819C458.121 661.586 457.408 658.982 459.088 657.854C459.285 657.721 459.483 657.589 459.68 657.459C461.63 656.17 460.659 652.976 458.429 653.674C456.309 654.338 454.518 651.944 456.239 650.539C456.876 650.019 457.523 649.524 458.18 649.05C460.564 647.335 459.557 643.8 456.887 645.022C453.753 646.457 450.822 648.513 448.022 651.407C447.848 651.58 447.559 651.539 447.452 651.318C446.819 650.004 446.167 648.696 445.592 647.354C445.199 646.439 445.282 645.388 445.842 644.565C446.084 644.21 446.334 643.863 446.592 643.521C448.106 641.514 448.429 638.836 447.817 636.398C446.065 629.424 446.384 618.837 446.528 611.805C446.564 610.08 447.217 608.425 448.384 607.153C449.908 605.491 450.508 603.199 450.192 600.966C448.861 591.537 449.807 581.34 450.612 571.89C450.732 570.489 451.447 569.207 452.579 568.374C454.105 567.25 454.81 565.344 454.613 563.458C453.563 553.409 456.786 542.114 458.439 532.247C458.628 531.119 459.333 530.141 460.356 529.629C461.684 528.964 462.434 527.535 462.412 526.05C462.287 517.67 465.675 504.818 467.8 496.512C468.074 495.441 468.828 494.556 469.844 494.118C471.122 493.567 471.951 492.321 472.026 490.931C472.127 489.065 472.314 487.228 472.641 485.354C473.306 481.516 477.004 466.182 479.429 462.438C479.684 462.045 480.112 461.819 480.568 461.711C481.634 461.459 482.463 460.606 482.676 459.532C484.077 452.447 488.367 436.295 491.203 431.833C491.385 431.546 491.656 431.329 491.963 431.181C492.91 430.73 493.718 430.505 494.061 429.444C494.724 427.401 494.608 424.892 495.001 422.769C495.839 418.239 499.351 401.757 502.469 399.118C506.212 395.94 505.191 379.984 507.346 375.317C507.428 375.14 507.669 375.153 507.747 375.332C507.785 375.418 507.769 375.519 507.705 375.589L507.67 375.627C507.623 375.679 507.595 375.744 507.588 375.813L507.357 378.296C507.35 378.369 507.276 378.416 507.208 378.391C507.112 378.356 507.003 378.453 507.024 378.552C507.626 381.394 505.52 399.872 504.003 412.352C503.727 414.62 506.962 415.685 508.166 413.744C509.316 411.891 512.068 412.943 511.766 415.102C509.999 427.716 508.396 440.451 506.04 452.966C505.602 455.289 508.751 456.639 510.062 454.672C511.349 452.74 514.417 453.931 514.019 456.218C513.308 460.312 512.533 464.394 511.591 468.435C510.324 473.884 508.802 479.272 507.313 484.666C506.799 486.528 509.102 487.748 510.346 486.27C511.71 484.649 514.17 486.088 513.229 487.986C510.794 492.898 508.074 497.673 505.259 502.396C505.216 502.469 505.172 502.543 505.127 502.617C503.861 504.728 506.217 506.687 508.072 505.068C509.808 503.555 512.214 505.025 511.349 507.16C511.298 507.286 511.247 507.411 511.197 507.536C508.419 514.426 505.402 520.163 501.785 525.696C499.776 528.769 503.074 532.852 506.163 530.867C518.84 522.717 530.104 508.903 535.365 494.784C537.797 488.243 538.707 481.636 538.781 474.951C538.809 472.43 541.592 471.828 541.919 474.327C542.222 476.643 545.632 477.443 546.486 475.269C551.416 462.73 551.536 452.76 546.607 437.921C546.129 436.519 547.892 435.645 548.637 436.925C548.86 437.308 549.083 437.692 549.305 438.075C550.061 439.381 551.945 438.716 551.673 437.232C549.794 426.995 546.845 417.685 542.008 408.5C541.48 407.497 542.873 406.389 543.666 407.198C544.442 407.99 546.069 407.04 545.693 405.997C543.106 398.829 540.507 391.642 537.521 384.642C535.081 378.913 531.387 373.111 529.755 367.12C529.046 364.502 528.772 361.432 528.636 358.378C528.564 356.776 530.802 356.232 531.438 357.704C534.128 364.529 536.929 371.443 539.434 378.429C540.555 381.557 545.354 381.122 545.748 377.823C546.086 374.995 549.438 374.403 550.427 377.074C553.389 385.078 554.78 394.654 555.752 403.625C556.085 406.692 560.449 407.156 561.409 404.224C562.343 401.373 566.661 401.468 567.211 404.417C568.776 412.807 569.793 421.313 570.659 429.816C570.921 432.387 574.31 432.578 575.006 430.089C575.623 427.88 578.422 428.128 578.852 430.381C579.995 436.384 580.84 442.37 581.463 448.439C581.676 450.522 584.489 450.881 585.073 448.87C585.654 446.864 588.77 446.836 589.192 448.881C589.779 451.723 590.263 454.585 590.57 457.501C590.854 460.215 590.964 462.958 591.132 465.691C591.233 467.326 593.331 467.557 593.863 466.008C594.397 464.451 596.771 464.607 597.05 466.229C597.673 469.858 598.25 473.531 598.678 477.218C599.208 481.781 605.751 483.294 606.848 478.834C610.203 465.191 609.479 450.973 605.724 436.569C597.28 404.179 572.901 364.677 543.663 347.613C539.558 345.218 539.772 344.253 544.025 346.375C545.787 347.253 547.225 348.022 548.057 348.508C555.588 352.899 563.279 358.953 569.691 365.599C571.107 367.066 573.899 365.534 573.232 363.608C572.564 361.677 575.048 360.182 576.319 361.782C581.097 367.792 585.061 373.801 588.808 380.488C589.936 382.501 593.511 381.531 593.48 379.223C593.452 377.106 596.167 376.406 597.151 378.28C601.629 386.807 605.078 394.92 608.791 403.58C609.755 405.829 612.984 405.154 612.97 402.708C612.956 400.302 616.169 399.576 617.226 401.736C618.86 405.074 620.513 408.4 622.186 411.72C622.84 413.019 625.063 412.319 624.939 410.871C624.822 409.515 626.597 409.068 627.198 410.289C630.129 416.248 633.26 422.089 636.515 427.88C637.1 428.921 638.751 428.318 638.558 427.14C638.367 425.968 639.905 425.473 640.43 426.538C642.261 430.249 644.035 434.024 645.767 437.814C647.193 440.933 652.096 439.922 651.981 436.494C651.949 435.561 651.905 434.628 651.843 433.696C650.692 416.305 645.599 395.678 632.805 383.049C632.517 382.766 632.919 382.234 633.263 382.447C635.044 383.548 636.811 384.664 638.551 385.824C639.406 386.394 640.542 385.211 639.894 384.413C634.675 377.986 629.193 372.037 622.175 367.2C621.278 366.584 620.366 365.989 619.444 365.41C618.067 364.544 618.766 363.077 620.234 363.777C621.68 364.467 623.046 362.635 621.85 361.57C608.279 349.487 591.91 340.257 574.64 333.762C570.596 332.241 571.29 328.355 575.484 329.395C581.143 330.799 586.636 332.424 591.515 334.115C592.709 334.528 593.715 332.806 592.755 331.985C591.758 331.134 592.736 329.764 593.863 330.434C598.332 333.091 602.764 335.817 607.252 338.453C608.586 339.237 610.218 337.348 609.337 336.077C608.435 334.776 610.134 333.319 611.337 334.348C614.875 337.376 618.496 340.307 622.197 343.141C622.756 343.577 623.321 344.009 623.889 344.438C625.496 345.652 628.252 343.196 627.343 341.399C626.499 339.731 628.441 338.383 629.797 339.669C634.953 344.563 639.987 349.599 645.002 354.64C646.459 356.104 648.866 354.533 648.114 352.609C647.361 350.685 649.736 349.149 651.167 350.64C655.908 355.579 660.604 360.569 665.493 365.358C666.785 366.623 668.738 365.22 667.974 363.581C667.219 361.963 669.208 360.396 670.596 361.52C678.902 368.247 687.372 375.117 694.829 382.658ZM388.879 271.117C388.946 271.08 389.029 271.091 389.084 271.144C389.157 271.214 389.156 271.33 389.08 271.397C388.174 272.194 387.027 272.834 386.001 273.55C384.931 274.298 385.156 275.674 386.456 275.79C386.488 275.793 386.52 275.796 386.552 275.799C388.498 275.954 389.708 277.958 388.728 279.646C387.649 281.505 389.448 283.628 391.442 282.825C394.836 281.457 398.358 279.753 401.191 277.808C402.757 276.732 404.857 276.526 406.439 277.577C407.284 278.138 408.114 278.719 408.892 279.349C409.254 279.642 409.305 280.167 409.036 280.548C408.469 281.353 409.494 282.276 410.275 281.677L410.572 281.45C410.895 281.203 411.339 281.185 411.678 281.411C412.386 281.881 413.086 282.361 413.781 282.849C417.579 285.514 415.393 292.987 410.816 293.747C401.293 295.328 391.941 298.205 383.075 301.729C374.719 305.084 365.253 301.296 360.978 293.372C359.232 290.135 357.346 286.98 355.299 283.856C354.435 282.536 354.65 280.777 355.832 279.731L357.386 278.357C357.765 278.021 358.339 278.044 358.706 278.392C359.211 278.87 359.72 279.309 360.24 279.717C360.876 280.216 361.458 279.435 360.884 278.865C360.491 278.475 360.703 277.812 361.251 277.736C363.054 277.485 364.877 277.376 366.698 277.282C367.317 277.25 367.554 277.999 367.163 278.48C366.888 278.82 367.208 279.224 367.636 279.137C368.96 278.868 370.402 278.259 371.817 277.706C372.502 277.439 372.923 278.192 372.368 278.675C371.751 279.212 372.362 280.134 373.09 279.762C378.427 277.031 383.651 274.01 388.879 271.117ZM465.907 319.867C466.967 319.773 467.21 321.215 466.217 321.599C465.214 321.988 465.674 323.561 466.748 323.499C467.086 323.48 467.424 323.464 467.762 323.451C469.064 323.4 469.104 325.017 467.812 325.185C436.994 329.214 414.024 337.57 387.396 357.538C383.254 360.961 376.314 358.039 376.13 352.669C375.999 348.806 375.756 344.947 375.337 341.07C375.184 339.655 375.656 338.234 376.692 337.259C379.866 334.272 383.357 331.528 386.944 328.951C388.642 327.731 391.09 329.977 390.229 331.883C389.509 333.475 391.123 334.98 392.618 334.076C396.711 331.6 400.576 328.612 404.482 325.954C406.026 324.901 407.582 323.884 409.154 322.898C411.454 321.454 414.317 324.623 412.978 326.985C411.757 329.14 414.216 331.391 416.362 330.154C426.261 324.448 437.976 318.734 447.842 316.205C447.864 316.2 447.888 316.201 447.91 316.209C447.952 316.224 447.982 316.261 447.987 316.305L448.001 316.421C448.014 316.526 447.972 316.63 447.89 316.696C447.495 317.018 447.104 317.34 446.717 317.665C444.074 319.881 447.211 324.13 450.493 323.07C455.542 321.439 460.773 320.321 465.907 319.867ZM307.784 217.819C316.99 224.188 326.226 231.368 334.555 239.264C336.362 240.977 340.223 238.412 339.267 236.113C338.319 233.832 341.413 232.091 342.939 234.033C349.706 242.646 356.97 251.062 364.982 258.108C365.051 258.169 365.131 258.217 365.217 258.249C365.701 258.43 366.162 258.09 366.061 257.584C365.9 256.777 365.606 255.628 365.242 254.316C364.357 251.12 368.351 248.596 370.889 250.731C371.122 250.927 371.355 251.122 371.588 251.318C373.654 253.052 373.019 256.405 370.537 257.46C366.194 259.307 362.028 261.48 357.8 263.536C353.073 265.836 347.495 264.161 344.048 260.192C342.477 258.383 340.869 256.609 339.296 254.841C332.229 246.909 324.95 239.334 317.497 231.772C313.658 227.868 309.919 223.858 306.175 219.853C304.505 218.067 305.777 216.424 307.784 217.819ZM486.578 395.883C485.799 397.969 486.585 399.729 485.85 401.859C483.416 408.894 479.62 415.854 476.005 422.434C475.504 423.346 475.517 424.454 476.038 425.355C476.557 426.251 476.573 427.353 476.079 428.263L462.743 452.864C462.331 453.624 462.053 454.507 462.649 455.133C463.428 455.952 463.462 457.149 463.004 458.182C459.233 466.686 454.987 474.858 449.959 482.682C449.022 484.139 448.675 485.903 449.032 487.598C449.258 488.673 449.212 489.781 448.855 490.819C446.585 497.416 440.61 512.154 436.558 518.976C435.496 520.765 435.237 523.048 436.225 524.879C436.862 526.061 436.981 527.453 436.565 528.73C434.286 535.732 432.263 542.85 429.884 549.803C429.489 550.955 428.727 551.947 427.699 552.601C425.277 554.142 424.344 557.196 425.699 559.727C425.797 559.911 425.895 560.094 425.993 560.277C426.771 561.727 426.947 563.415 426.537 565.008C424.628 572.428 421.493 586.434 419.185 590.487C417.779 592.973 416.677 595.73 417.865 598.328C417.912 598.429 417.959 598.531 418.006 598.632C418.835 600.415 419.111 602.429 418.622 604.333C416.711 611.774 415.243 619.299 413.713 626.825C413.367 628.763 413.049 630.264 412.446 631.615C411.288 634.206 410.769 637.33 412.37 639.673C413.494 641.317 413.565 643.475 412.49 645.151C411.765 646.282 411.007 647.393 410.226 648.488C407.15 652.8 399.724 650.4 399.76 645.103C399.763 644.594 399.773 644.086 399.788 643.578C399.848 641.479 397.841 641.122 397.492 643.193C397.159 645.166 393.631 645.793 392.528 644.123C391.835 643.074 391.098 642.068 390.318 641.102C388.886 639.326 385.891 641.965 386.87 644.026C387.633 645.633 385.939 647.418 384.312 646.699C374.763 642.481 364.694 640.799 354.005 641.585C348.837 641.963 344.048 642.771 339.572 644.077C334.346 645.601 326.683 638.572 330.332 634.533C330.589 634.25 330.847 633.967 331.107 633.687C334.757 629.747 331.295 623.861 326.836 626.856C322.725 629.617 316.76 625.336 319.01 620.923C322.861 613.372 327.244 605.996 331.484 599.852C332.603 598.227 330.732 596.413 329.242 597.706C328.833 598.061 328.426 598.42 328.023 598.783C317.997 607.798 308.999 618.748 302.034 630.279C299.703 634.13 293.94 633.194 293.159 628.76C291.247 617.901 288.829 607.187 285.618 596.58C284.981 594.477 285.233 592.194 286.417 590.342C286.862 589.646 287.312 588.953 287.763 588.26C289.526 585.552 288.236 582.465 285.473 580.788C283.717 579.719 283.222 578.091 282.799 576.193C280.963 568.021 279.783 560.307 277.117 552.28C275.412 547.136 272.966 542.133 271.211 536.994C270.545 535.045 270.965 532.893 272.384 531.4C272.477 531.303 272.57 531.206 272.664 531.109C275.228 528.456 274.924 524.466 271.835 522.447C270.816 521.78 270.064 520.781 269.671 519.628C267.882 514.367 266.665 508.851 264.884 503.575C262.692 497.069 259.873 490.77 257.112 484.48C256.295 482.619 256.372 480.434 257.691 478.888C259.748 476.475 260.183 472.951 257.684 470.999C257.627 470.955 257.57 470.91 257.512 470.866C256.33 469.962 255.343 468.807 254.828 467.41C252.386 460.787 249.991 454.141 247.631 447.49C245.848 442.581 243.91 437.656 242.447 432.629C241.982 431.028 242.347 429.302 243.458 428.058C245.457 425.818 245.33 422.46 242.827 420.802C242.607 420.655 242.386 420.51 242.165 420.365C241.239 419.754 240.502 418.897 240.052 417.883C235.804 408.309 232.853 397.401 230.402 387.203C230.029 385.648 230.371 384.006 231.402 382.783C233.308 380.522 233.1 377.173 230.629 375.548C230.422 375.413 230.214 375.278 230.006 375.143C228.626 374.253 227.649 372.859 227.293 371.255C224.938 360.628 221.85 349.81 220.499 339.031C220.307 337.5 220.743 335.959 221.742 334.783C223.665 332.517 223.455 329.477 221.606 327.15C221.224 326.669 220.897 326.173 220.666 325.658C217.704 319.011 216.203 291.573 215.446 282.181C215.408 281.7 215.571 281.228 215.92 280.894C216.141 280.682 216.368 280.475 216.599 280.271C217.332 279.622 218.502 280.096 218.602 281.07C218.73 282.32 220.428 282.562 220.895 281.395C221.474 279.949 222.051 278.503 222.639 277.062C223.656 274.57 226.72 275.54 226.356 278.207C225.692 283.066 225.209 287.935 225.087 292.833C225.008 295.995 228.74 296.763 230.148 293.93C231.69 290.83 235.329 292.46 234.727 295.87C232.863 306.437 232.125 317.538 232.711 328.267C232.846 330.755 237.228 331.055 237.983 328.681C238.756 326.255 242.941 327.126 242.805 329.669C242.233 340.367 242.379 352.246 243.763 361.765C244.169 364.557 247.533 364.581 248.265 361.856C249.006 359.099 249.763 356.34 250.575 353.6C251.198 351.493 254.457 352.252 254.275 354.442C253.605 362.098 253.066 369.761 252.658 377.432C252.48 381.1 252.369 384.75 252.227 388.397C252.152 390.345 255.375 391.101 256.173 389.322C257.011 387.454 260.61 388.6 260.278 390.621C259.277 396.715 258.419 402.836 257.591 408.959C257.228 411.644 260.761 412.785 262.014 410.383C263.272 407.975 266.404 409.087 265.815 411.74C264.116 419.389 262.225 427.019 260.872 434.723C260.477 436.977 263.645 438.098 264.983 436.241C266.25 434.483 268.892 435.647 268.517 437.782C267.642 442.759 266.713 447.713 265.74 452.66C264.57 458.611 271.347 462.058 274.924 457.16C282.389 446.937 288.823 435.462 292.839 424.523C298.316 409.6 299.721 394.781 296.584 380.159C296.076 377.792 298.607 376.473 299.449 378.742C300.238 380.868 303.927 380.702 304.254 378.459C305.351 370.941 306.337 363.519 305.735 355.613C304.857 344.17 300.709 335.325 294.44 327.479C292.475 325.021 294.63 322.2 296.957 324.317C299.187 326.346 303.968 324.157 303.186 321.245C298.383 303.348 291.044 294.428 276.289 282.38C274.27 280.732 275.744 278.133 277.99 279.456C280.283 280.806 283.953 278.14 282.674 275.806C275.426 262.573 265.057 249.638 254.538 240.367C250.728 237.008 245.394 234.536 242.16 230.69C238.281 226.082 243.19 221.567 247.412 225.862C251.739 230.263 255.964 235.285 259.537 239.604C260.838 241.177 263.204 240.008 262.689 238.033C262.141 235.935 264.543 234.795 265.672 236.645C268.094 240.615 270.363 244.703 272.782 248.605C276.39 254.306 280.134 259.916 284.016 265.432C285.374 267.36 288.407 266.034 287.98 263.715C287.526 261.257 291.353 259.815 292.638 261.958C293.985 264.203 295.275 266.474 296.41 268.817C299.828 275.859 302.624 283.201 305.571 290.479C306.753 293.398 310.258 292.926 309.911 289.796C309.536 286.41 314.035 284.603 315.394 287.726C317.019 291.457 318.577 295.217 320.111 298.983C321.011 301.197 321.856 303.541 322.744 305.876C323.671 308.315 326.52 307.631 326.4 305.025C326.276 302.336 329.795 301.433 331.011 303.835C334.131 309.999 337.173 316.297 339.455 322.733C340.495 325.665 339.312 328.862 336.695 330.545C334.786 331.774 332.883 333.012 331.069 334.398C328.51 336.354 326.017 338.419 323.547 340.521C321.351 342.39 323.628 346.286 326.372 345.4C327.616 344.998 328.868 344.611 330.131 344.241C331.123 343.95 331.896 345.061 331.282 345.893C330.543 346.894 331.74 348.215 332.783 347.536C335.788 345.579 338.77 343.586 341.787 341.647C343.471 340.566 345.553 342.148 345.025 344.078C344.371 346.467 347.796 348.001 349.183 345.95C349.853 344.958 350.505 343.958 351.124 342.945C352.326 340.976 355.257 340.928 356.08 343.083C357.288 346.243 358.191 349.626 358.992 352.996C359.487 355.076 362.315 355.023 362.649 352.911C362.94 351.075 365.34 350.491 366.309 352.077C368.873 356.274 371.114 360.715 373.049 365.229C374.134 367.759 373.602 370.664 371.86 372.796C361.861 385.034 354.663 397.349 349.868 411.466C348.858 414.44 353.534 416.343 355.429 413.839C357.135 411.587 358.918 409.383 360.764 407.201C361.375 406.478 362.682 407.153 362.514 408.085C362.345 409.021 363.634 409.532 364.178 408.753C366.02 406.117 367.946 403.541 369.954 401.026C371.427 399.184 372.941 397.38 374.497 395.612C375.384 394.604 377.173 395.715 376.795 397.005C376.415 398.305 378.194 399.073 378.965 397.959C381.224 394.696 383.589 391.529 386.06 388.425C386.962 387.293 389.137 388.447 388.862 389.868C388.597 391.231 390.463 391.986 391.275 390.858C394.133 386.887 397.129 383.061 400.244 379.292C401.189 378.149 403.091 379.187 402.704 380.618C402.318 382.044 404.185 382.951 405.09 381.784C408.939 376.824 412.872 371.938 417.051 367.259C418.651 365.467 421.487 367.087 420.924 369.423C420.345 371.829 423.526 373.254 425.118 371.36C430.654 364.771 437.196 358.217 443.976 352.892C446.009 351.296 448.613 353.782 447.471 356.101C446.336 358.406 449.206 360.521 451.2 358.9C461.765 350.316 475.181 340.63 485.318 335.643C485.391 335.607 485.472 335.668 485.461 335.748C485.458 335.777 485.442 335.803 485.417 335.82C469.449 346.636 456.238 360.304 443.419 374.526C442.464 375.586 443.767 377.342 445.119 376.886C446.59 376.389 447.295 378.467 445.936 379.219C445.201 379.625 444.469 380.034 443.737 380.443C440.772 382.1 437.53 383.722 435.009 386.019C429.013 391.477 422.386 403.047 418.11 412.919C417.277 414.843 419.824 416.266 421.386 414.867C422.965 413.452 424.716 415.543 423.476 417.263C417.147 426.036 413.166 435.794 411.595 446.567C411.322 448.44 413.825 449.071 414.761 447.426C415.863 445.489 417.09 443.628 418.536 441.791C418.857 441.383 419.493 441.747 419.337 442.242C413.25 461.407 413.773 479.533 419.344 497.265C420.49 500.911 426.267 499.434 426.352 495.614C426.468 490.411 426.859 485.176 427.463 480.171C427.658 478.561 430.42 478.616 430.776 480.199C431.113 481.701 433.324 481.492 433.529 479.967C433.999 476.461 434.56 472.961 435.016 469.47C435.312 467.19 435.557 464.903 435.788 462.614C436.011 460.402 439.128 460.087 439.923 462.164C440.685 464.152 443.269 463.534 443.29 461.405C443.35 455.386 443.651 449.246 444.438 443.265C444.78 440.669 448.197 440.639 448.896 443.162C449.605 445.724 453.082 445.229 453.354 442.585C453.762 438.622 454.276 434.677 454.807 430.732C455.075 428.734 458.703 428.767 459.147 430.733C459.558 432.554 462.021 432.161 462.229 430.305C463.082 422.703 464.869 414.999 466.935 407.896C467.528 405.859 468.203 403.809 468.858 401.749C469.459 399.863 472.82 399.948 473.241 401.882C473.645 403.734 476.327 403.75 476.828 401.921C479.486 392.219 482.888 383.015 486.92 373.813C487.471 372.555 489.413 373.078 489.291 374.447C489.179 375.707 490.963 376.39 491.755 375.404C491.797 375.352 491.84 375.299 491.882 375.246C492.731 374.194 494.349 375.034 493.935 376.321C491.802 382.945 489 389.38 486.578 395.883ZM436.198 292.604C433.213 292.428 430.531 290.63 429.429 287.851C429.318 287.573 429.209 287.295 429.099 287.017C427.605 283.228 429.925 279.163 433.982 278.797C435.152 278.678 436.341 278.625 437.538 278.618C439.287 278.607 439.739 282.051 438.156 282.797C436.72 283.474 437.285 285.544 438.873 285.509C444.495 285.386 450.115 285.462 455.731 285.742C457.436 285.827 457.904 288.578 456.408 289.4C455.067 290.138 455.522 292.191 457.042 292.375C461.903 292.963 466.844 293.836 471.6 294.9C472.312 295.059 472.258 295.964 471.529 296.011C470.787 296.059 470.638 297.145 471.338 297.397C474.19 298.425 476.991 299.582 479.803 300.725C482.407 301.863 481.656 303.309 478.991 302.32C465.201 297.198 450.936 293.47 436.198 292.604Z" fill="#0B673A" fill-opacity="0.5"/>
</svg>
